<?xml version="1.0" encoding="UTF-8"?>
<svg id="BOP" xmlns="http://www.w3.org/2000/svg" viewBox="0 0 32 32">
  <defs>
    <style>
      .cls-1 {
        fill: #6ebcd6;
      }

      .cls-2 {
        fill: #444;
      }
    </style>
  </defs>
  <g id="Black-3" data-name="Black">
    <path class="cls-2" d="M15,23.59v-1.59h-2c.26,0,.51.1.71.29l1.29,1.29Z"/>
    <path class="cls-2" d="M17,23.59l1.29-1.29c.2-.2.45-.29.71-.29h-2v1.59Z"/>
    <path class="cls-2" d="M30.92,22.62c-.15-.37-.52-.62-.92-.62h-11c.26,0,.51.1.71.29.39.39.39,1.02,0,1.41l-.29.29h8.17l-5,5H4.41l5-5h3.17l-.29-.29c-.39-.39-.39-1.02,0-1.41.2-.2.45-.29.71-.29h-4c-.27,0-.52.11-.71.29l-7,7c-.29.29-.37.72-.22,1.09.15.37.52.62.92.62h21c.27,0,.52-.11.71-.29l7-7c.29-.29.37-.72.22-1.09Z"/>
    <path class="cls-2" d="M25,1H7C3.69,1,1,3.69,1,7s2.69,6,6,6h5c0-.26.1-.51.29-.71l1.29-1.29h-6.59c-2.21,0-4-1.79-4-4s1.79-4,4-4h13.54c-.95,1.06-1.54,2.46-1.54,4s.59,2.94,1.54,4h-2.13l1.29,1.29c.2.2.29.45.29.71h5c3.31,0,6-2.69,6-6s-2.69-6-6-6ZM25,11c-2.21,0-4-1.79-4-4s1.79-4,4-4,4,1.79,4,4-1.79,4-4,4Z"/>
  </g>
  <g id="Blue-2" data-name="Blue">
    <path class="cls-1" d="M18.29,22.29l-1.29,1.29v-11.17l1.29,1.29c.2.2.45.29.71.29s.51-.1.71-.29c.39-.39.39-1.02,0-1.41l-3-3c-.09-.09-.2-.17-.33-.22-.24-.1-.52-.1-.76,0-.12.05-.23.12-.33.22l-3,3c-.39.39-.39,1.02,0,1.41s1.02.39,1.41,0l1.29-1.29v11.17l-1.29-1.29c-.39-.39-1.02-.39-1.41,0s-.39,1.02,0,1.41l3,3c.09.09.2.17.33.22.12.05.25.08.38.08s.26-.03.38-.08c.12-.05.23-.12.33-.22l3-3c.39-.39.39-1.02,0-1.41s-1.02-.39-1.41,0Z"/>
  </g>
</svg>