<?xml version="1.0" encoding="UTF-8"?>
<svg id="COP" xmlns="http://www.w3.org/2000/svg" viewBox="0 0 32 32">
  <defs>
    <style>
      .cls-1 {
        fill: #6ebcd6;
      }

      .cls-2 {
        fill: #444;
      }
    </style>
  </defs>
  <g id="Black-3" data-name="Black">
    <path class="cls-2" d="M15,23.59v-1.59h-2c.26,0,.51.1.71.29l1.29,1.29Z"/>
    <path class="cls-2" d="M17,23.59l1.29-1.29c.2-.2.45-.29.71-.29h-2v1.59Z"/>
    <path class="cls-2" d="M30.92,22.62c-.15-.37-.52-.62-.92-.62h-11c.26,0,.51.1.71.29.39.39.39,1.02,0,1.41l-.29.29h8.17l-5,5H4.41l5-5h3.17l-.29-.29c-.39-.39-.39-1.02,0-1.41.2-.2.45-.29.71-.29h-4c-.27,0-.52.11-.71.29l-7,7c-.29.29-.37.72-.22,1.09.15.37.52.62.92.62h21c.27,0,.52-.11.71-.29l7-7c.29-.29.37-.72.22-1.09Z"/>
    <path class="cls-2" d="M16,1c-5.24,0-9.5,4.26-9.5,9.5,0,4.9,3.73,8.94,8.5,9.45v-2.02c-3.66-.49-6.5-3.63-6.5-7.43,0-4.14,3.36-7.5,7.5-7.5s7.5,3.36,7.5,7.5c0,3.8-2.84,6.93-6.5,7.43v2.02c4.77-.5,8.5-4.55,8.5-9.45,0-5.24-4.26-9.5-9.5-9.5Z"/>
  </g>
  <g id="Blue-2" data-name="Blue">
    <path class="cls-1" d="M18.29,22.29l-1.29,1.29v-11.17l1.29,1.29c.2.2.45.29.71.29s.51-.1.71-.29c.39-.39.39-1.02,0-1.41l-3-3c-.09-.09-.2-.17-.33-.22-.24-.1-.52-.1-.76,0-.12.05-.23.12-.33.22l-3,3c-.39.39-.39,1.02,0,1.41s1.02.39,1.41,0l1.29-1.29v11.17l-1.29-1.29c-.39-.39-1.02-.39-1.41,0s-.39,1.02,0,1.41l3,3c.09.09.2.17.33.22.12.05.25.08.38.08s.26-.03.38-.08c.12-.05.23-.12.33-.22l3-3c.39-.39.39-1.02,0-1.41s-1.02-.39-1.41,0Z"/>
  </g>
</svg>