<?xml version="1.0" encoding="UTF-8"?>
<svg id="_카메라" data-name="카메라" xmlns="http://www.w3.org/2000/svg" viewBox="0 0 32 32">
  <defs>
    <style>
      .cls-1 {
        fill: #6ebcd6;
      }

      .cls-2, .cls-3 {
        fill: #444;
      }

      .cls-3 {
        opacity: .5;
      }
    </style>
  </defs>
  <g id="PlusISO">
    <g id="Blue">
      <polygon class="cls-1" points="16 16 21.59 16 25 12.59 25 7 19.41 7 16 10.41 16 16"/>
    </g>
    <g id="Black">
      <path class="cls-2" d="M30,1H10c-.27,0-.52.11-.71.29L1.29,9.29c-.19.19-.29.44-.29.71v20c0,.55.45,1,1,1h20c.27,0,.52-.11.71-.29l8-8c.19-.19.29-.44.29-.71V2c0-.55-.45-1-1-1ZM10.41,3h17.17l-2,2h-6.59c-.27,0-.52.11-.71.29l-3.71,3.71H4.41l6-6ZM21,16h-5v-5.59l1.41-1.41,2-2h5.59v5.59l-2,2-1.41,1.41h-.59ZM3,29V11h11v6c0,.55.45,1,1,1h6v11H3ZM29,21.59l-6,6v-10.17l3.71-3.71c.19-.19.29-.44.29-.71v-6.59l2-2v17.17Z"/>
    </g>
    <g id="Alpha">
      <polygon class="cls-3" points="11 3 10.41 3 9 4.41 9 9 11 9 11 3"/>
      <polygon class="cls-3" points="11 21 11 11 9 11 9 21.59 3 27.59 3 29 4.41 29 10.41 23 21 23 21 21 11 21"/>
      <polygon class="cls-3" points="29 21.59 29 21 23 21 23 23 27.59 23 29 21.59"/>
    </g>
  </g>
</svg>