<?xml version="1.0" encoding="UTF-8"?>
<svg id="Z_-2" data-name="Z+" xmlns="http://www.w3.org/2000/svg" viewBox="0 0 32 32">
  <defs>
    <style>
      .cls-1 {
        fill: #444;
      }
    </style>
  </defs>
  <g id="Black-8" data-name="Black">
    <path class="cls-1" d="M19,31c-.32,0-.62-.15-.81-.41L7.19,15.59c-.22-.3-.26-.71-.08-1.04.17-.34.51-.55.89-.55h4.96c-.12-1.55-.57-3.53-1.8-5.46C8.21,3.93,2.92,3.11,1.89,2.99c-.53-.06-.92-.52-.89-1.05.03-.53.47-.94,1-.94h8c1.22,0,7.56.2,11.78,5.37h0c2.21,2.71,2.93,5.67,3.15,7.63h5.08c.38,0,.72.21.89.55.17.34.14.74-.08,1.04l-11,15c-.19.26-.49.41-.81.41ZM9.97,16l9.03,12.31,9.03-12.31h-4.03c-.53,0-.97-.42-1-.95-.07-1.59-.53-4.66-2.78-7.42-3.63-4.45-9.09-4.64-10.22-4.63h-1.87c1.67.96,3.38,2.38,4.71,4.46,1.78,2.79,2.16,5.64,2.16,7.54,0,.27-.11.52-.29.71s-.44.29-.71.29h-4.03Z"/>
  </g>
</svg>