<?xml version="1.0" encoding="UTF-8"?>
<svg id="Y--2" data-name="Y-" xmlns="http://www.w3.org/2000/svg" viewBox="0 0 32 32">
  <defs>
    <style>
      .cls-1 {
        fill: #444;
      }
    </style>
  </defs>
  <g id="Black-8" data-name="Black">
    <path class="cls-1" d="M17,28c-.21,0-.42-.07-.59-.19L1.41,16.81c-.26-.19-.41-.49-.41-.81s.15-.62.41-.81l15-11c.3-.22.71-.26,1.04-.08.34.17.55.51.55.89v5h12c.55,0,1,.45,1,1v10c0,.55-.45,1-1,1h-12v5c0,.38-.21.72-.55.89-.14.07-.3.11-.45.11ZM3.69,16l12.31,9.03v-4.03c0-.55.45-1,1-1h12v-8h-12c-.55,0-1-.45-1-1v-4.03L3.69,16Z"/>
  </g>
</svg>