<?xml version="1.0" encoding="UTF-8"?>
<svg id="X--2" data-name="X-" xmlns="http://www.w3.org/2000/svg" viewBox="0 0 32 32">
  <defs>
    <style>
      .cls-1 {
        fill: #444;
      }
    </style>
  </defs>
  <g id="Black-8" data-name="Black">
    <path class="cls-1" d="M16,31c-.32,0-.62-.15-.81-.41L4.19,15.59c-.22-.3-.26-.71-.09-1.04.17-.34.52-.55.89-.55h5V2c0-.55.45-1,1-1h10c.55,0,1,.45,1,1v12h5c.38,0,.72.21.89.55.17.34.14.74-.09,1.04l-11,15c-.19.26-.49.41-.81.41ZM6.97,16l9.03,12.31,9.03-12.31h-4.03c-.55,0-1-.45-1-1V3h-8v12c0,.55-.45,1-1,1h-4.03Z"/>
  </g>
</svg>