<?xml version="1.0" encoding="UTF-8"?>
<svg id="Z--2" data-name="Z-" xmlns="http://www.w3.org/2000/svg" viewBox="0 0 32 32">
  <defs>
    <style>
      .cls-1 {
        fill: #444;
      }
    </style>
  </defs>
  <g id="Black-8" data-name="Black">
    <path class="cls-1" d="M13,31c-.32,0-.62-.15-.81-.41L1.19,15.59c-.22-.3-.26-.71-.08-1.04.17-.34.51-.55.89-.55h5.08c.22-1.96.94-4.92,3.15-7.63h0C14.44,1.2,20.82,1.01,22.01,1h7.99c.53,0,.97.41,1,.94.03.53-.36.99-.89,1.05-1.03.12-6.32.93-9.27,5.54-1.24,1.93-1.68,3.91-1.8,5.46h4.96c.38,0,.72.21.89.55.17.34.14.74-.08,1.04l-11,15c-.19.26-.49.41-.81.41ZM3.97,16l9.03,12.31,9.03-12.31h-4.03c-.27,0-.52-.11-.71-.29s-.29-.44-.29-.71c0-1.9.38-4.75,2.16-7.54,1.33-2.08,3.03-3.5,4.71-4.46h-1.86c-1.09-.05-6.59.17-10.22,4.63h0c-2.24,2.75-2.7,5.83-2.78,7.42-.03.53-.46.95-1,.95H3.97Z"/>
  </g>
</svg>