<?xml version="1.0" encoding="UTF-8"?>
<svg id="Y_-2" data-name="Y+" xmlns="http://www.w3.org/2000/svg" viewBox="0 0 32 32">
  <defs>
    <style>
      .cls-1 {
        fill: #444;
      }
    </style>
  </defs>
  <g id="Black-8" data-name="Black">
    <path class="cls-1" d="M15,28c-.15,0-.31-.04-.45-.11-.34-.17-.55-.51-.55-.89v-5H2c-.55,0-1-.45-1-1v-10c0-.55.45-1,1-1h12v-5c0-.38.21-.72.55-.89.34-.17.74-.14,1.04.08l15,11c.26.19.41.49.41.81s-.15.62-.41.81l-15,11c-.17.13-.38.19-.59.19ZM3,20h12c.55,0,1,.45,1,1v4.03l12.31-9.03-12.31-9.03v4.03c0,.55-.45,1-1,1H3v8Z"/>
  </g>
</svg>