<?xml version="1.0" encoding="UTF-8"?>
<svg id="X_-2" data-name="X+" xmlns="http://www.w3.org/2000/svg" viewBox="0 0 32 32">
  <defs>
    <style>
      .cls-1 {
        fill: #444;
      }
    </style>
  </defs>
  <g id="Black-8" data-name="Black">
    <path class="cls-1" d="M21,31h-10c-.55,0-1-.45-1-1v-12h-5c-.38,0-.72-.21-.89-.55-.17-.34-.14-.74.08-1.04L15.19,1.41c.38-.51,1.24-.51,1.61,0l11,15c.22.3.26.71.08,1.04-.17.34-.51.55-.89.55h-5v12c0,.55-.45,1-1,1ZM12,29h8v-12c0-.55.45-1,1-1h4.03L16,3.69l-9.03,12.31h4.03c.55,0,1,.45,1,1v12Z"/>
  </g>
  <g id="Black-9" data-name="Black">
    <path class="cls-1" d="M21,31h-10c-.55,0-1-.45-1-1v-12h-5c-.38,0-.72-.21-.89-.55-.17-.34-.14-.74.08-1.04L15.19,1.41c.38-.51,1.24-.51,1.61,0l11,15c.22.3.26.71.08,1.04-.17.34-.51.55-.89.55h-5v12c0,.55-.45,1-1,1ZM12,29h8v-12c0-.55.45-1,1-1h4.03L16,3.69l-9.03,12.31h4.03c.55,0,1,.45,1,1v12Z"/>
  </g>
</svg>