<?xml version="1.0" encoding="UTF-8"?>
<svg id="_카메라" data-name="카메라" xmlns="http://www.w3.org/2000/svg" viewBox="0 0 32 32">
  <defs>
    <style>
      .cls-1 {
        fill: #6ebcd6;
      }

      .cls-2, .cls-3 {
        fill: #444;
      }

      .cls-3 {
        opacity: .5;
      }
    </style>
  </defs>
  <g id="MinusX">
    <g id="Blue">
      <rect class="cls-1" x="11" y="11" width="10" height="10"/>
      <polygon class="cls-1" points="21.59 9 27.59 3 11 3 11 9 21.59 9"/>
      <polygon class="cls-1" points="29 4.41 23 10.41 23 21 29 21 29 4.41"/>
    </g>
    <g id="Black">
      <path class="cls-2" d="M30,1H10c-.27,0-.52.11-.71.29L1.29,9.29c-.19.19-.29.44-.29.71v20c0,.55.45,1,1,1h20c.27,0,.52-.11.71-.29l8-8c.19-.19.29-.44.29-.71V2c0-.55-.45-1-1-1ZM10.41,3h17.17l-6,6H4.41l6-6ZM3,11h18v18H3V11ZM23,27.59V10.41l6-6v17.17l-6,6Z"/>
    </g>
    <g id="Alpha">
      <polygon class="cls-3" points="11 3 10.41 3 9 4.41 9 9 11 9 11 3"/>
      <polygon class="cls-3" points="11 21 11 11 9 11 9 21.59 3 27.59 3 29 4.41 29 10.41 23 21 23 21 21 11 21"/>
      <polygon class="cls-3" points="29 21.59 29 21 23 21 23 23 27.59 23 29 21.59"/>
    </g>
  </g>
</svg>