<?xml version="1.0" encoding="UTF-8"?>
<svg id="X-Ray" xmlns="http://www.w3.org/2000/svg" viewBox="0 0 32 32">
  <defs>
    <style>
      .cls-1, .cls-2 {
        fill: #444;
      }

      .cls-2 {
        opacity: .5;
      }
    </style>
  </defs>
  <g id="Black">
    <path class="cls-1" d="M12,31c-6.07,0-11-4.93-11-11s4.93-11,11-11,11,4.93,11,11-4.93,11-11,11ZM12,11c-4.96,0-9,4.04-9,9s4.04,9,9,9,9-4.04,9-9-4.04-9-9-9Z"/>
  </g>
  <g id="Alpha">
    <path class="cls-2" d="M11.55,15.1c-.19-.52-.77-.79-1.28-.59-.52.19-.78.77-.59,1.28.27.75.63,1.47,1.06,2.14.19.3.51.46.84.46.18,0,.37-.05.54-.16.46-.3.6-.92.3-1.38-.35-.55-.64-1.14-.87-1.75Z"/>
    <path class="cls-2" d="M16.91,20.45c-.61-.22-1.2-.52-1.75-.87-.47-.3-1.08-.16-1.38.3-.3.46-.16,1.08.3,1.38.67.43,1.39.78,2.14,1.06.11.04.23.06.34.06.41,0,.79-.25.94-.66.19-.52-.08-1.09-.59-1.28Z"/>
    <path class="cls-2" d="M9.95,12.16s.06,0,.09,0c.51,0,.95-.39,1-.91,0-.07.02-.13.03-.2-.68.07-1.34.23-1.97.44.12.36.45.64.86.67Z"/>
    <path class="cls-2" d="M20.75,20.97c-.55.05-.96.53-.91,1.08.04.41.31.73.67.85.21-.63.37-1.28.44-1.96-.07,0-.14.02-.2.03Z"/>
    <path class="cls-2" d="M20,1c-5.07,0-9.45,3.47-10.66,8.34.7-.18,1.43-.28,2.18-.31,1.24-3.56,4.61-6.02,8.48-6.02,4.96,0,9,4.04,9,9,0,3.87-2.47,7.24-6.02,8.48-.03.75-.14,1.47-.31,2.18,4.87-1.21,8.34-5.58,8.34-10.66,0-6.07-4.93-11-11-11Z"/>
  </g>
</svg>