<?xml version="1.0" encoding="UTF-8"?>
<svg id="Z축_정렬" data-name="Z축 정렬" xmlns="http://www.w3.org/2000/svg" viewBox="0 0 32 32">
  <defs>
    <style>
      .cls-1 {
        fill: #6ebcd6;
      }

      .cls-2 {
        fill: #444;
      }
    </style>
  </defs>
  <g id="Black">
    <path class="cls-2" d="M29.47,8.12L16.47,1.12c-.3-.16-.65-.16-.95,0L2.53,8.12c-.32.17-.53.51-.53.88v14c0,.37.2.71.53.88l13,7c.15.08.31.12.47.12s.33-.04.47-.12l6.87-3.7c-.11.04-.22.07-.35.07-.55,0-1-.45-1-1v-.62l-5,2.69v-11.73l5-2.69v-1.06l-1.13-.61-4.87,2.62-10.89-5.86,4.87-2.62-.46-.25c-.49-.26-.67-.87-.41-1.35.26-.49.87-.67,1.35-.41l1.62.87,3.91-2.1,10.89,5.86-3.91,2.1.49.26c.32.17.53.51.53.88v.58l4-2.15v11.73l-4,2.15v1.69c0,.37-.21.68-.5.85l5.98-3.22c.32-.17.53-.51.53-.88v-14c0-.37-.2-.71-.53-.88ZM16.06,28.83l-.06.03-.06-.03h.11ZM15,16.6v11.73l-11-5.92v-11.73l11,5.92Z"/>
  </g>
  <g id="Blue">
    <path class="cls-1" d="M23,27.25c-.55,0-1-.45-1-1v-13.4l-12.47-6.72c-.49-.26-.67-.87-.41-1.35.26-.49.87-.67,1.35-.41l13,7c.32.17.53.51.53.88v14c0,.55-.45,1-1,1Z"/>
  </g>
</svg>