<?xml version="1.0" encoding="UTF-8"?>
<svg id="Y축_정렬" data-name="Y축 정렬" xmlns="http://www.w3.org/2000/svg" viewBox="0 0 32 32">
  <defs>
    <style>
      .cls-1 {
        fill: #6ebcd6;
      }

      .cls-2 {
        fill: #444;
      }
    </style>
  </defs>
  <g id="Black">
    <path class="cls-2" d="M2,9v14c0,.37.2.71.53.88l5.98,3.22c-.3-.17-.5-.48-.5-.85v-1.69s-4-2.15-4-2.15v-11.73s4,2.15,4,2.15v-.58c0-.37.2-.71.53-.88l.49-.26-3.91-2.1,10.89-5.86,3.91,2.1,1.62-.87c.49-.26,1.09-.08,1.35.41.26.49.08,1.09-.41,1.35l-.46.25,4.87,2.62-10.89,5.86-4.87-2.62-1.13.61v1.06s5,2.69,5,2.69v11.73s-5-2.69-5-2.69v.62c0,.55-.45,1-1,1-.12,0-.24-.03-.35-.07l6.87,3.7c.15.08.31.12.47.12s.33-.04.47-.12l13-7c.32-.17.53-.51.53-.88v-14c0-.37-.2-.71-.53-.88L16.47,1.12c-.3-.16-.65-.16-.95,0L2.53,8.12c-.32.17-.53.51-.53.88ZM16.06,28.83l-.06.03-.06-.03h.11ZM28,10.67v11.73s-11,5.92-11,5.92v-11.73s11-5.92,11-5.92Z"/>
  </g>
  <g id="Blue">
    <path class="cls-1" d="M9,27.25c.55,0,1-.45,1-1v-13.4s12.47-6.72,12.47-6.72c.49-.26.67-.87.41-1.35-.26-.49-.87-.67-1.35-.41l-13,7c-.32.17-.53.51-.53.88v14c0,.55.45,1,1,1Z"/>
  </g>
</svg>