<?xml version="1.0" encoding="UTF-8"?>
<svg id="Z축_정렬-2" data-name="Z축 정렬" xmlns="http://www.w3.org/2000/svg" viewBox="0 0 32 32">
  <defs>
    <style>
      .cls-1 {
        fill: #6ebcd6;
      }

      .cls-2 {
        fill: #444;
      }
    </style>
  </defs>
  <g id="Black">
    <path class="cls-2" d="M29.47,8.12L16.47,1.12c-.3-.16-.65-.16-.95,0L2.53,8.12c-.32.17-.53.51-.53.88v14c0,.37.2.71.53.88l13,7c.15.08.31.12.47.12s.33-.04.47-.12l13-7c.32-.17.53-.51.53-.88v-14c0-.37-.2-.71-.53-.88ZM16,3.14l10.89,5.86-10.89,5.86-10.89-5.86,10.89-5.86ZM16,28.86l-.06-.03h.11l-.06.03ZM29.47,16.88l-1.47.79v4.73l-11,5.92v-4.73l-.53.28c-.15.08-.31.12-.47.12s-.33-.04-.47-.12l-.53-.28v4.73l-11-5.92v-4.73l-1.47-.79c-.49-.26-.67-.87-.41-1.35.26-.49.87-.67,1.35-.41l.53.28v-4.73l11,5.92v4.73l1,.54,1-.54v-4.73l11-5.92v4.73l.53-.28c.49-.26,1.09-.08,1.35.41.26.49.08,1.09-.41,1.35Z"/>
  </g>
  <g id="Blue">
    <path class="cls-1" d="M16,24c-.16,0-.33-.04-.47-.12l-13-7c-.49-.26-.67-.87-.41-1.35.26-.49.87-.67,1.35-.41l12.53,6.74,12.53-6.74c.49-.26,1.09-.08,1.35.41.26.49.08,1.09-.41,1.35l-13,7c-.15.08-.31.12-.47.12Z"/>
  </g>
</svg>