<?xml version="1.0" encoding="UTF-8"?>
<svg id="_각도" data-name="각도" xmlns="http://www.w3.org/2000/svg" viewBox="0 0 32 32">
  <defs>
    <style>
      .cls-1 {
        fill: #6ebcd6;
      }

      .cls-2 {
        fill: #444;
      }
    </style>
  </defs>
  <g id="Black-2" data-name="Black">
    <path class="cls-2" d="M4,31c-1.65,0-3-1.35-3-3s1.35-3,3-3,3,1.35,3,3-1.35,3-3,3ZM4,27c-.55,0-1,.45-1,1s.45,1,1,1,1-.45,1-1-.45-1-1-1Z"/>
    <path class="cls-2" d="M18,7c-1.65,0-3-1.35-3-3s1.35-3,3-3,3,1.35,3,3-1.35,3-3,3ZM18,3c-.55,0-1,.45-1,1s.45,1,1,1,1-.45,1-1-.45-1-1-1Z"/>
    <path class="cls-2" d="M28,31c-1.65,0-3-1.35-3-3s1.35-3,3-3,3,1.35,3,3-1.35,3-3,3ZM28,27c-.55,0-1,.45-1,1s.45,1,1,1,1-.45,1-1-.45-1-1-1Z"/>
    <path class="cls-2" d="M23.1,27h-14.2c.07.32.1.66.1,1s-.04.68-.1,1h14.2c-.07-.32-.1-.66-.1-1s.04-.68.1-1Z"/>
    <path class="cls-2" d="M12.4,15.58l4-6.87c-.65-.22-1.23-.56-1.73-1.01l-4.01,6.87-1.01,1.73-4.07,6.97c.65.22,1.23.56,1.73,1.01l4.07-6.97,1.01-1.74Z"/>
  </g>
  <g id="Blue">
    <path class="cls-1" d="M12.4,15.58l-1.01,1.74c3.13,2.17,5.25,5.67,5.56,9.68h2c-.32-4.74-2.83-8.9-6.55-11.42Z"/>
  </g>
</svg>