<?xml version="1.0" encoding="UTF-8"?>
<svg id="_테스트시작" data-name="테스트시작" xmlns="http://www.w3.org/2000/svg" viewBox="0 0 32 32">
  <defs>
    <style>
      .cls-1 {
        fill: #6ebcd6;
      }

      .cls-2 {
        fill: #444;
      }
    </style>
  </defs>
  <g id="Black">
    <path class="cls-2" d="M15.02,23.91c-1.18.69-2.55,1.09-4.02,1.09-4.41,0-8-3.59-8-8,0-2.95,1.61-5.53,4-6.92v9.92c0,.55.45,1,1,1h7.38c.81-2.63,2.87-4.72,5.49-5.58-.76-4.77-4.89-8.42-9.86-8.42-.68,0-1.35.07-2,.2V3h16v12.15c.69.12,1.36.34,2,.63V2c0-.55-.45-1-1-1H8c-.55,0-1,.45-1,1v5.84c-3.53,1.55-6,5.07-6,9.16,0,5.51,4.49,10,10,10,1.57,0,3.05-.37,4.37-1.01-.2-.66-.32-1.36-.35-2.08ZM18.46,14.13l-4.87,4.87h-3.17l6.9-6.9c.48.61.86,1.29,1.15,2.03ZM9,9.26c.64-.17,1.31-.26,2-.26.19,0,.37.02.56.03l-2.56,2.56v-2.32ZM9,14.41l4.87-4.87c.73.28,1.41.67,2.03,1.15l-6.9,6.9v-3.17Z"/>
  </g>
  <g id="Blue">
    <path class="cls-1" d="M22.78,21.08c-.15-.1-.35-.11-.51-.02-.16.09-.26.26-.26.44v4c0,.18.1.35.26.44.07.04.15.06.24.06.1,0,.19-.03.28-.08l3-2c.14-.09.22-.25.22-.42s-.08-.32-.22-.42l-3-2Z"/>
    <path class="cls-1" d="M30.71,29.29l-1.97-1.97c.79-1.08,1.26-2.4,1.26-3.83,0-3.58-2.92-6.5-6.5-6.5s-6.5,2.92-6.5,6.5,2.92,6.5,6.5,6.5c1.43,0,2.75-.47,3.83-1.26l1.97,1.97c.2.2.45.29.71.29s.51-.1.71-.29c.39-.39.39-1.02,0-1.41ZM23.5,28c-2.48,0-4.5-2.02-4.5-4.5s2.02-4.5,4.5-4.5,4.5,2.02,4.5,4.5-2.02,4.5-4.5,4.5Z"/>
  </g>
</svg>