<?xml version="1.0" encoding="UTF-8"?>
<svg id="_검사종료" data-name="검사종료" xmlns="http://www.w3.org/2000/svg" viewBox="0 0 32 32">
  <defs>
    <style>
      .cls-1 {
        fill: #444;
      }

      .cls-2 {
        fill: #ff696a;
      }
    </style>
  </defs>
  <g id="Black">
    <path class="cls-1" d="M17.76,24l-1.24-1.24c-1.44,1.38-3.38,2.24-5.52,2.24-4.41,0-8-3.59-8-8,0-2.95,1.61-5.53,4-6.92v9.92c0,.55.45,1,1,1h7.18c-.11-.32-.18-.65-.18-1,0-.8.31-1.56.88-2.12l2-2c.57-.57,1.32-.88,2.12-.88.28,0,.55.05.82.13-.88-4.62-4.94-8.13-9.82-8.13-.68,0-1.35.07-2,.2V3h16v13.76l.88-.88c.32-.32.71-.55,1.12-.7V2c0-.55-.45-1-1-1H8c-.55,0-1,.45-1,1v5.84c-3.53,1.55-6,5.07-6,9.16,0,5.51,4.49,10,10,10,1.94,0,3.74-.56,5.27-1.52l1.48-1.48ZM18.46,14.13l-4.87,4.87h-3.17l6.9-6.9c.48.61.86,1.29,1.15,2.03ZM9,9.26c.64-.17,1.31-.26,2-.26.19,0,.37.02.56.03l-2.56,2.56v-2.32ZM9,14.41l4.87-4.87c.73.28,1.41.67,2.03,1.15l-6.9,6.9v-3.17Z"/>
  </g>
  <g id="Red">
    <path class="cls-2" d="M27.41,24l3.29-3.29c.19-.19.29-.44.29-.71s-.11-.52-.29-.71l-2-2c-.39-.39-1.02-.39-1.41,0l-3.29,3.29-3.29-3.29c-.39-.39-1.02-.39-1.41,0l-2,2c-.19.19-.29.44-.29.71s.11.52.29.71l3.29,3.29-3.29,3.29c-.19.19-.29.44-.29.71s.11.52.29.71l2,2c.2.19.45.29.71.29s.51-.1.71-.29l3.29-3.29,3.29,3.29c.2.2.45.29.71.29s.51-.1.71-.29l2-2c.19-.19.29-.44.29-.71s-.11-.52-.29-.71l-3.29-3.29Z"/>
  </g>
</svg>