<?xml version="1.0" encoding="UTF-8"?>
<svg id="_기본" data-name="기본" xmlns="http://www.w3.org/2000/svg" viewBox="0 0 32 32">
  <defs>
    <style>
      .cls-1 {
        fill: #444;
      }
    </style>
  </defs>
  <g id="_개체로_비행" data-name="개체로 비행">
    <g id="Black">
      <path class="cls-1" d="M13,31H2c-.55,0-1-.45-1-1v-11h2v10h10v2Z"/>
      <path class="cls-1" d="M3,13H1V2c0-.55.45-1,1-1h11v2H3v10Z"/>
      <path class="cls-1" d="M30,31h-11v-2h10v-10h2v11c0,.55-.45,1-1,1Z"/>
      <path class="cls-1" d="M31,13h-2V3h-10V1h11c.55,0,1,.45,1,1v11Z"/>
      <path class="cls-1" d="M19,20h-6c-.55,0-1-.45-1-1v-6c0-.55.45-1,1-1h6c.55,0,1,.45,1,1v6c0,.55-.45,1-1,1ZM14,18h4v-4h-4v4Z"/>
      <path class="cls-1" d="M26.71,5.29c-.39-.39-1.02-.39-1.41,0l-3.29,3.29v-2.59h-2v5s0,0,0,0c0,.13.03.26.08.38.1.24.3.44.54.54.12.05.25.08.38.08h5v-2h-2.59l3.29-3.29c.39-.39.39-1.02,0-1.41Z"/>
      <path class="cls-1" d="M12,20.99c0-.13-.03-.26-.08-.38-.1-.24-.3-.44-.54-.54-.12-.05-.25-.08-.38-.08h-5v2h2.59l-3.29,3.29c-.39.39-.39,1.02,0,1.41.2.2.45.29.71.29s.51-.1.71-.29l3.29-3.29v2.59h2v-5s0,0,0,0Z"/>
    </g>
  </g>
</svg>