<?xml version="1.0" encoding="UTF-8"?>
<svg id="_거리" data-name="거리" xmlns="http://www.w3.org/2000/svg" viewBox="0 0 32 32">
  <defs>
    <style>
      .cls-1 {
        fill: #6ebcd6;
      }

      .cls-2 {
        fill: #444;
      }
    </style>
  </defs>
  <g id="Black-2" data-name="Black">
    <path class="cls-2" d="M4,31c-1.65,0-3-1.35-3-3s1.35-3,3-3,3,1.35,3,3-1.35,3-3,3ZM4,27c-.55,0-1,.45-1,1s.45,1,1,1,1-.45,1-1-.45-1-1-1Z"/>
    <path class="cls-2" d="M28,7c-1.65,0-3-1.35-3-3s1.35-3,3-3,3,1.35,3,3-1.35,3-3,3ZM28,3c-.55,0-1,.45-1,1s.45,1,1,1,1-.45,1-1-.45-1-1-1Z"/>
  </g>
  <g id="Blue">
    <path class="cls-1" d="M25,6h-5c-.55,0-1,.45-1,1s.45,1,1,1h2.59l-14.59,14.59v-2.59c0-.55-.45-1-1-1s-1,.45-1,1v5c0,.55.45,1,1,1h5c.55,0,1-.45,1-1s-.45-1-1-1h-2.59l14.59-14.59v2.59c0,.55.45,1,1,1s1-.45,1-1v-5c0-.55-.45-1-1-1Z"/>
  </g>
</svg>