<?xml version="1.0" encoding="UTF-8"?>
<svg id="_거리XYZ" data-name="거리XYZ" xmlns="http://www.w3.org/2000/svg" viewBox="0 0 32 32">
  <defs>
    <style>
      .cls-1 {
        fill: #6ebcd6;
      }

      .cls-2 {
        fill: #444;
      }
    </style>
  </defs>
  <g id="Black-2" data-name="Black">
    <path class="cls-2" d="M31,4c0-1.65-1.35-3-3-3s-3,1.35-3,3c0,1.3.84,2.4,2,2.82v14.18H4c-.55,0-1,.45-1,1v3.18c-1.16.41-2,1.51-2,2.82,0,1.65,1.35,3,3,3s3-1.35,3-3c0-1.3-.84-2.4-2-2.82v-2.18h23c.55,0,1-.45,1-1V6.82c1.16-.41,2-1.51,2-2.82ZM4,29c-.55,0-1-.45-1-1s.45-1,1-1,1,.45,1,1-.45,1-1,1ZM28,5c-.55,0-1-.45-1-1s.45-1,1-1,1,.45,1,1-.45,1-1,1Z"/>
  </g>
  <g id="Blue">
    <path class="cls-1" d="M10.45,9.11c-.5-.25-1.09-.05-1.34.45l-1.11,2.21-1.11-2.21c-.25-.49-.85-.7-1.34-.45-.49.25-.69.85-.45,1.34l1.78,3.55-1.78,3.55c-.25.49-.05,1.09.45,1.34.14.07.3.11.45.11.37,0,.72-.2.9-.55l1.11-2.21,1.11,2.21c.18.35.53.55.9.55.15,0,.3-.03.45-.11.49-.25.69-.85.45-1.34l-1.78-3.55,1.78-3.55c.25-.49.05-1.09-.45-1.34Z"/>
    <path class="cls-1" d="M24,17h-2.38l3.28-6.55c.15-.31.14-.68-.04-.97-.18-.29-.5-.47-.85-.47h-4c-.55,0-1,.45-1,1s.45,1,1,1h2.38l-3.28,6.55c-.15.31-.14.68.04.97.18.29.5.47.85.47h4c.55,0,1-.45,1-1s-.45-1-1-1Z"/>
    <path class="cls-1" d="M17.45,9.11c-.5-.25-1.09-.05-1.34.45l-1.11,2.21-1.11-2.21c-.25-.49-.85-.7-1.34-.45-.49.25-.69.85-.45,1.34l1.89,3.79v3.76c0,.55.45,1,1,1s1-.45,1-1v-3.76l1.89-3.79c.25-.49.05-1.09-.45-1.34Z"/>
  </g>
</svg>