<?xml version="1.0" encoding="UTF-8"?>
<svg id="_스케치" data-name="스케치" xmlns="http://www.w3.org/2000/svg" viewBox="0 0 32 32">
  <defs>
    <style>
      .cls-1 {
        fill: #444;
      }
    </style>
  </defs>
  <g id="_고정구름" data-name="고정구름">
    <g id="Black">
      <path class="cls-1" d="M20.03,29.92c-1.43,0-2.84-.44-4.03-1.27-2.17,1.53-5.1,1.73-7.5.34-2.41-1.39-3.69-4.02-3.45-6.67-2.41-1.12-4.05-3.55-4.05-6.32s1.64-5.21,4.05-6.32c-.24-2.64,1.05-5.28,3.45-6.67,2.41-1.39,5.33-1.19,7.5.34,2.17-1.53,5.09-1.73,7.5-.34,2.41,1.39,3.69,4.02,3.45,6.67,2.41,1.12,4.05,3.55,4.05,6.32s-1.64,5.21-4.05,6.32c.24,2.65-1.05,5.28-3.45,6.67-1.09.63-2.29.93-3.47.93ZM16,22.52l1.61,2.18c.91,1.23,2.58,1.59,3.89.83,1.31-.76,1.84-2.38,1.23-3.78l-1.08-2.48,2.69-.3c1.52-.17,2.66-1.44,2.66-2.96s-1.14-2.78-2.66-2.96l-2.69-.3,1.08-2.48c.61-1.4.08-3.03-1.23-3.79-1.31-.76-2.98-.4-3.89.83l-1.61,2.18-1.61-2.18c-.91-1.23-2.58-1.58-3.89-.83-1.31.76-1.84,2.38-1.23,3.78l1.08,2.48-2.69.3c-1.52.17-2.66,1.44-2.66,2.96s1.14,2.78,2.66,2.96l2.69.3-1.08,2.48c-.61,1.4-.08,3.03,1.23,3.78,1.31.76,2.98.4,3.89-.83l1.61-2.18Z"/>
    </g>
  </g>
</svg>