<?xml version="1.0" encoding="UTF-8"?>
<svg id="_스케치" data-name="스케치" xmlns="http://www.w3.org/2000/svg" viewBox="0 0 32 32">
  <defs>
    <style>
      .cls-1, .cls-2 {
        fill: #444;
      }

      .cls-2 {
        opacity: .5;
      }
    </style>
  </defs>
  <g id="_구름" data-name="구름">
    <g id="Black">
      <path class="cls-1" d="M7.44,22.94c-.08,0-.15,0-.23-.01-3.54-.4-6.21-3.38-6.21-6.93,0-2.78,1.64-5.21,4.05-6.32-.24-2.64,1.05-5.28,3.45-6.67,3.07-1.77,6.99-.95,9.11,1.92.66.89.47,2.14-.42,2.8-.89.66-2.14.47-2.8-.42-.91-1.23-2.58-1.58-3.89-.83-1.31.76-1.84,2.38-1.23,3.78l1.08,2.48-2.69.3c-1.52.17-2.66,1.44-2.66,2.96s1.14,2.78,2.66,2.96c1.1.12,1.89,1.11,1.76,2.21-.12,1.02-.98,1.78-1.98,1.78Z"/>
    </g>
    <g id="Alpha">
      <path class="cls-2" d="M31,16c0-2.78-1.64-5.21-4.05-6.32.24-2.65-1.05-5.28-3.45-6.67-2.41-1.39-5.33-1.19-7.5.34,0,0,0,0,0,.01.6.42,1.15.94,1.6,1.56.53.72.5,1.68,0,2.37h0c.91-1.22,2.58-1.58,3.89-.82,1.31.76,1.84,2.38,1.23,3.79l-1.08,2.48,2.69.3c1.52.17,2.66,1.44,2.66,2.96s-1.14,2.78-2.66,2.96l-2.69.3,1.08,2.48c.61,1.4.08,3.03-1.23,3.78-1.31.76-2.98.4-3.89-.83l-1.61-2.18-1.61,2.18c-.91,1.23-2.58,1.59-3.89.83-1.31-.76-1.84-2.38-1.23-3.79,0,0,0,0,0,0-.31.71-1.02,1.2-1.82,1.2-.08,0-.15,0-.23-.01-.77-.09-1.49-.3-2.15-.61,0,0,0,0-.01,0-.24,2.65,1.05,5.28,3.45,6.67,1.09.63,2.29.93,3.47.93,1.43,0,2.84-.44,4.03-1.27,2.17,1.53,5.09,1.73,7.5.34,2.41-1.39,3.69-4.02,3.45-6.67,2.41-1.12,4.05-3.55,4.05-6.32Z"/>
    </g>
  </g>
</svg>