<?xml version="1.0" encoding="UTF-8"?>
<svg id="_스케치" data-name="스케치" xmlns="http://www.w3.org/2000/svg" viewBox="0 0 32 32">
  <defs>
    <style>
      .cls-1 {
        fill: #444;
      }
    </style>
  </defs>
  <g id="_글자" data-name="글자">
    <g id="Black">
      <path class="cls-1" d="M22,31h-12c-.55,0-1-.45-1-1v-4c0-.55.45-1,1-1h2V8h-5v4c0,.55-.45,1-1,1H2c-.55,0-1-.45-1-1V2c0-.55.45-1,1-1h28c.55,0,1,.45,1,1v10c0,.55-.45,1-1,1h-4c-.55,0-1-.45-1-1v-4h-5v17h2c.55,0,1,.45,1,1v4c0,.55-.45,1-1,1ZM11,29h10v-2h-2c-.55,0-1-.45-1-1V7c0-.55.45-1,1-1h7c.55,0,1,.45,1,1v4h2V3H3v8h2v-4c0-.55.45-1,1-1h7c.55,0,1,.45,1,1v19c0,.55-.45,1-1,1h-2v2Z"/>
    </g>
  </g>
</svg>