<?xml version="1.0" encoding="UTF-8"?>
<svg id="_기본단면" data-name="기본단면" xmlns="http://www.w3.org/2000/svg" viewBox="0 0 32 32">
  <defs>
    <style>
      .cls-1 {
        fill: #6ebcd6;
      }

      .cls-2, .cls-3 {
        fill: #444;
      }

      .cls-3 {
        opacity: .5;
      }
    </style>
  </defs>
  <g id="Black">
    <path id="_03" data-name="03" class="cls-2" d="M28.98,11.78s-.02-.03-.03-.08c-.02-.07-.05-.12-.08-.18-.03-.06-.06-.11-.11-.16-.02-.02-.03-.05-.05-.07l-5.71-5.71v2.83l3.01,3.01-3.01.67v2.05l4-.89v6.1l-4,1.78v2.19l5.41-2.4c.36-.16.59-.52.59-.91.02-5.63.01-8.13-.02-8.22Z"/>
  </g>
  <g id="Blue">
    <path class="cls-1" d="M19,25c-.1,0-.2-.01-.29-.04l-13-4c-.42-.13-.71-.52-.71-.96v-8c0-.27.11-.52.29-.71l6-6c.2-.2.46-.3.74-.29.28,0,.54.13.72.34l7,8c.16.18.25.42.25.66v10c0,.32-.15.62-.41.8-.17.13-.38.2-.59.2ZM7,19.26l11,3.38v-8.27l-6.05-6.91-4.95,4.95v6.85Z"/>
    <path class="cls-1" d="M22,31c-.12,0-.23-.02-.35-.06L2.65,23.94c-.39-.15-.65-.52-.65-.94V2c0-.55.45-1,1-1h19c.55,0,1,.45,1,1v28c0,.33-.16.63-.43.82-.17.12-.37.18-.57.18ZM4,22.3l17,6.26V3H4v19.3Z"/>
  </g>
  <g id="Alpha">
    <path class="cls-3" d="M7,13s.07,0,.1,0l6.47-.65-1.62-1.85-3.37.34-1.58,1.58v.59Z"/>
    <polygon class="cls-3" points="16 19.02 16 17 16 15.13 15 13.98 15 17.18 7 18.78 7 19.26 10.07 20.21 16 19.02"/>
    <path class="cls-3" d="M21,5h-9c-.06,0-.11.02-.17.03-.02,0-.03,0-.05.01.08-.02.17-.05.26-.04.28,0,.54.13.72.34l1.45,1.66h6.8v-2Z"/>
    <path class="cls-3" d="M19.94,13.65c.04.11.06.23.06.35v.8l1-.22v-2.05l-1.64.36c.13.15.26.3.39.45.05.06.13.16.18.31Z"/>
    <path class="cls-3" d="M21,22.02l-1,.44v1.54c0,.32-.15.62-.41.8-.07.05-.15.09-.23.12.01,0,.03,0,.04,0l1.59-.71v-2.19Z"/>
  </g>
</svg>