<?xml version="1.0" encoding="UTF-8"?>
<svg id="_3D노트" data-name="3D노트" xmlns="http://www.w3.org/2000/svg" viewBox="0 0 32 32">
  <defs>
    <style>
      .cls-1 {
        fill: #6ebcd6;
      }

      .cls-2 {
        fill: #444;
      }
    </style>
  </defs>
  <g id="Black">
    <path class="cls-2" d="M13,25v-9c0-.55-.45-1-1-1H3V3h22v13h2V2c0-.55-.45-1-1-1H2c-.55,0-1,.45-1,1v14c0,.13.03.26.08.39.05.12.12.23.22.32l10,10c.09.09.2.16.32.22.12.05.25.08.39.08h3c0-.77.3-1.47.78-2h-2.78ZM11,23.59l-6.59-6.59h6.59v6.59Z"/>
  </g>
  <g id="Blue">
    <path class="cls-1" d="M27,30h-2c-.55,0-1-.45-1-1v-10c0-.55.45-1,1-1h2s.09,0,.14.01c1.3.19,2.17.88,2.57,1.28.93.93,1.2,2.01,1.28,2.56,0,.05.01.09.01.14v4s0,.09-.01.14c-.19,1.3-.88,2.17-1.28,2.57-.93.93-2.01,1.2-2.56,1.28-.05,0-.09.01-.14.01ZM26,28h.92c.33-.06.88-.22,1.37-.71.22-.22.59-.68.71-1.37v-3.85c-.06-.33-.22-.88-.71-1.37-.22-.22-.68-.59-1.37-.71h-.92v8Z"/>
    <path class="cls-1" d="M23,22v-1c0-1.65-1.35-3-3-3s-3,1.35-3,3c0,.55.45,1,1,1s1-.45,1-1,.46-1,1-1,1,.46,1,1v.76l-.62,1.24h-.38c-.55,0-1,.45-1,1s.45,1,1,1h.38l.62,1.24v.76c0,.54-.46,1-1,1s-1-.46-1-1-.45-1-1-1-1,.45-1,1c0,1.65,1.35,3,3,3s3-1.35,3-3v-1c0-.16-.04-.31-.11-.45l-.78-1.55.78-1.55c.07-.14.11-.29.11-.45Z"/>
  </g>
</svg>