<?xml version="1.0" encoding="UTF-8"?>
<svg id="_모두숨기기" data-name="모두숨기기" xmlns="http://www.w3.org/2000/svg" viewBox="0 0 32 32">
  <defs>
    <style>
      .cls-1 {
        fill: #444;
      }
    </style>
  </defs>
  <g id="Black">
    <path class="cls-1" d="M18,21c-1.65,0-3,1.35-3,3v6c0,.55.45,1,1,1s1-.45,1-1v-3h2v3c0,.55.45,1,1,1s1-.45,1-1v-6c0-1.65-1.35-3-3-3ZM17,25v-1c0-.54.46-1,1-1s1,.46,1,1v1h-2Z"/>
    <path class="cls-1" d="M30,31h-2c-.55,0-1-.45-1-1v-8c0-.55.45-1,1-1s1,.45,1,1v7h1c.55,0,1,.45,1,1s-.45,1-1,1Z"/>
    <path class="cls-1" d="M25,31h-2c-.55,0-1-.45-1-1v-8c0-.55.45-1,1-1s1,.45,1,1v7h1c.55,0,1,.45,1,1s-.45,1-1,1Z"/>
    <path class="cls-1" d="M24.71,1.29c-.39-.39-1.02-.39-1.41,0l-3.78,3.78c-.7-.28-1.41-.51-2.15-.68-1.09-.26-2.22-.4-3.36-.4-5.32,0-10.25,2.88-12.87,7.51-.17.31-.17.68,0,.98.97,1.72,2.26,3.19,3.77,4.37.54.42,1.1.8,1.69,1.14l-3.29,3.29c-.39.39-.39,1.02,0,1.41.2.2.45.29.71.29s.51-.1.71-.29l3.78-3.78,2.04-2.04,1.45-1.45,5.45-5.45,1.45-1.45,2.53-2.53,3.29-3.29c.39-.39.39-1.02,0-1.41ZM16.02,8.56c-.59-.36-1.28-.56-2.02-.56-2.21,0-4,1.79-4,4,0,.74.21,1.43.56,2.02l-1.44,1.44c-.7-.98-1.12-2.17-1.12-3.47,0-3.31,2.69-6,6-6,1.29,0,2.49.42,3.47,1.12l-1.44,1.44Z"/>
    <path class="cls-1" d="M26.87,11.51c-.97-1.72-2.26-3.19-3.77-4.37l-3.31,3.31c.13.49.21,1.01.21,1.55,0,3.31-2.69,6-6,6-.54,0-1.05-.08-1.55-.21l-1.81,1.81c1.09.26,2.22.4,3.36.4,5.32,0,10.25-2.88,12.87-7.51.17-.31.17-.68,0-.98Z"/>
  </g>
</svg>