<?xml version="1.0" encoding="UTF-8"?>
<svg id="_내보내기" data-name="내보내기" xmlns="http://www.w3.org/2000/svg" viewBox="0 0 32 32">
  <defs>
    <style>
      .cls-1 {
        fill: #6ebcd6;
      }

      .cls-2 {
        fill: #444;
      }
    </style>
  </defs>
  <g id="Black">
    <path class="cls-2" d="M18,17h-8c-.55,0-1,.45-1,1s.45,1,1,1h8c.55,0,1-.45,1-1s-.45-1-1-1Z"/>
    <path class="cls-2" d="M26.71,6.29l-5-5c-.19-.19-.45-.28-.71-.28h0s-4,0-4,0H2c-.55,0-1,.45-1,1v24c0,.55.45,1,1,1h13v-1.24l.59-.59.17-.17H7v-9c0-.55.45-1,1-1h12c.55,0,1,.45,1,1v3.76l3.26-3.26c.73-.73,1.7-1.2,2.74-1.38V7c0-.27-.11-.52-.29-.71ZM16,3v3h-2v-3h2ZM19,9h-10c-.55,0-1-.45-1-1V3h4v4c0,.55.45,1,1,1h4c.55,0,1-.45,1-1V3h2v5c0,.55-.45,1-1,1Z"/>
    <path class="cls-2" d="M18.96,21.8c-.1-.45-.48-.8-.96-.8h-8c-.55,0-1,.45-1,1s.45,1,1,1h7.76l1.2-1.2Z"/>
  </g>
  <g id="Blue">
    <path class="cls-1" d="M30.09,17.91c-1.17-1.17-3.24-1.17-4.41,0l-8.68,8.68v4.41h4.41l8.68-8.68c1.22-1.22,1.22-3.2,0-4.41ZM20.59,29h-1.59v-1.59l6.5-6.5,1.59,1.59-6.5,6.5ZM28.68,20.91l-.18.18-1.59-1.59.18-.18c.42-.42,1.17-.42,1.58,0s.43,1.16,0,1.59Z"/>
  </g>
</svg>