<?xml version="1.0" encoding="UTF-8"?>
<svg id="_단면상사" data-name="단면상사" xmlns="http://www.w3.org/2000/svg" viewBox="0 0 32 32">
  <defs>
    <style>
      .cls-1 {
        fill: #6ebcd6;
      }

      .cls-2 {
        fill: #444;
      }

      .cls-3 {
        opacity: .5;
      }
    </style>
  </defs>
  <g id="Black" class="cls-3">
    <path class="cls-2" d="M26.77,12.36l-5-6c-.19-.23-.47-.36-.77-.36h-9s0,.01,0,.01c-.13,0-.26.02-.38.07-.12.05-.23.12-.33.21l-6,6c-.19.19-.29.44-.29.71v8c0,.43.28.81.68.95l12,4c.1.03.21.05.32.05.08,0,.16-.01.24-.04.07-.02.14-.05.2-.08,0,0,0,0,0,0h0s8-3.99,8-3.99c.34-.17.55-.52.55-.89v-8c0-.23-.08-.46-.23-.64ZM20.53,8l3.68,4.42-5.81,1.45-4.4-5.87h6.53ZM17,23.61l-8-2.67,5.06-1.9.94.24v-3.28l-2-2.67v3.97l-6,2.25v-5.67l5.86-.73-1.19-1.58h0s-.19-.26-.19-.26l-2.71.34,3.12-3.12,5.11,6.81v8.28ZM25,20.38l-6,3v-7.6l6-1.5v6.1Z"/>
  </g>
  <g id="Blue">
    <path class="cls-1" d="M30,31H2c-.55,0-1-.45-1-1V2c0-.55.45-1,1-1h28c.55,0,1,.45,1,1v28c0,.55-.45,1-1,1ZM3,29h26V3H3v26Z"/>
  </g>
</svg>