<?xml version="1.0" encoding="UTF-8"?>
<svg id="_단면선택삭제" data-name="단면선택삭제" xmlns="http://www.w3.org/2000/svg" viewBox="0 0 32 32">
  <defs>
    <style>
      .cls-1 {
        fill: #444;
      }

      .cls-2 {
        fill: #ff696a;
      }
    </style>
  </defs>
  <g id="Black">
    <path class="cls-1" d="M16.79,24.97l.97-.97-1.76-1.76v.46l-9.13-2.44,7.13-1.1v-2.02l-11,1.69v-7.93l8.59-.86-1.49-1.86-5.69.57,4.55-5.2,7.03,8.79v5.41l1.88-1.88s.08-.06.12-.1v-2.94l9-1.64v3.98c.32-.11.65-.18,1-.18s.68.07,1,.18v-5.18c0-.27-.11-.52-.29-.71L20.71,1.29c-.19-.19-.44-.29-.71-.29h-11c-.29,0-.56.12-.75.34L1.25,9.34c-.16.18-.25.42-.25.66v10c0,.45.3.85.74.97l15,4s.03,0,.04,0ZM19.59,3l6.36,6.36-8.54,1.55-6.33-7.91h8.51Z"/>
  </g>
  <g id="Red">
    <path class="cls-2" d="M27.41,24l3.29-3.29c.19-.19.29-.44.29-.71s-.11-.52-.29-.71l-2-2c-.39-.39-1.02-.39-1.41,0l-3.29,3.29-3.29-3.29c-.39-.39-1.02-.39-1.41,0l-2,2c-.19.19-.29.44-.29.71s.11.52.29.71l3.29,3.29-3.29,3.29c-.19.19-.29.44-.29.71s.11.52.29.71l2,2c.2.19.45.29.71.29s.51-.1.71-.29l3.29-3.29,3.29,3.29c.2.2.45.29.71.29s.51-.1.71-.29l2-2c.19-.19.29-.44.29-.71s-.11-.52-.29-.71l-3.29-3.29Z"/>
  </g>
</svg>