<?xml version="1.0" encoding="UTF-8"?>
<svg id="_단면전체삭제" data-name="단면전체삭제" xmlns="http://www.w3.org/2000/svg" viewBox="0 0 32 32">
  <defs>
    <style>
      .cls-1 {
        fill: #444;
      }

      .cls-2 {
        fill: #ff696a;
      }
    </style>
  </defs>
  <g id="Black">
    <path class="cls-1" d="M16,22.7l-9.13-2.44,7.13-1.1v-2.02l-11,1.69v-7.93l8.59-.86-1.49-1.86-5.69.57,4.55-5.2,7.03,8.79v5.43c.53-.48,1.23-.78,2-.78v-4.17l9-1.64v3.98c.85.3,1.53.97,1.83,1.82h.17v-7c0-.27-.11-.52-.29-.71L20.71,1.29c-.19-.19-.44-.29-.71-.29h-11c-.29,0-.56.12-.75.34L1.25,9.34c-.16.18-.25.42-.25.66v10c0,.45.3.85.74.97l14.26,3.8v-2.07ZM19.59,3l6.36,6.36-8.54,1.55-6.33-7.91h8.51Z"/>
  </g>
  <g id="Red">
    <path class="cls-2" d="M21.29,27.71c.2.2.45.29.71.29s.51-.1.71-.29l1.29-1.29,1.29,1.29c.2.2.45.29.71.29s.51-.1.71-.29c.39-.39.39-1.02,0-1.41l-1.29-1.29,1.29-1.29c.39-.39.39-1.02,0-1.41s-1.02-.39-1.41,0l-1.29,1.29-1.29-1.29c-.39-.39-1.02-.39-1.41,0s-.39,1.02,0,1.41l1.29,1.29-1.29,1.29c-.39.39-.39,1.02,0,1.41Z"/>
    <path class="cls-2" d="M30,19h-3v-1c0-.55-.45-1-1-1h-4c-.55,0-1,.45-1,1v1h-3c-.55,0-1,.45-1,1s.45,1,1,1v8c0,1.1.9,2,2,2h8c1.1,0,2-.9,2-2v-8c.55,0,1-.45,1-1s-.45-1-1-1ZM28,29h-8v-8h8v4h0v4Z"/>
  </g>
</svg>