<?xml version="1.0" encoding="UTF-8"?>
<svg id="_단면활성화" data-name="단면활성화" xmlns="http://www.w3.org/2000/svg" viewBox="0 0 32 32">
  <defs>
    <style>
      .cls-1 {
        fill: #6ebcd6;
      }

      .cls-2 {
        fill: #444;
      }
    </style>
  </defs>
  <g id="Black">
    <path class="cls-2" d="M15,24c0-.52.05-1.03.14-1.53l-8.27-2.21,7.13-1.1v-2.02l-11,1.69v-7.93l8.59-.86-1.49-1.86-5.69.57,4.55-5.2,7.03,8.79v7.54c.51-.98,1.19-1.85,2-2.58v-4.47l9-1.64v4.32c.71.25,1.38.58,2,.99v-6.52c0-.27-.11-.52-.29-.71L20.71,1.29c-.19-.19-.44-.29-.71-.29h-11c-.29,0-.56.12-.75.34L1.25,9.34c-.16.18-.25.42-.25.66v10c0,.45.3.85.74.97l13.28,3.54c0-.17-.03-.34-.03-.51ZM19.59,3l6.36,6.36-8.54,1.55-6.33-7.91h8.51Z"/>
  </g>
  <g id="Blue">
    <path class="cls-1" d="M24,31c-3.86,0-7-3.14-7-7s3.14-7,7-7,7,3.14,7,7-3.14,7-7,7ZM24,19c-2.76,0-5,2.24-5,5s2.24,5,5,5,5-2.24,5-5-2.24-5-5-5Z"/>
  </g>
</svg>