<?xml version="1.0" encoding="UTF-8"?>
<svg id="_렌더링" data-name="렌더링" xmlns="http://www.w3.org/2000/svg" viewBox="0 0 32 32">
  <defs>
    <style>
      .cls-1 {
        fill: #444;
      }
    </style>
  </defs>
  <g id="Black">
    <path class="cls-1" d="M16,31C7.73,31,1,24.27,1,16S7.73,1,16,1s15,6.73,15,15-6.73,15-15,15ZM16,3c-7.17,0-13,5.83-13,13s5.83,13,13,13,13-5.83,13-13S23.17,3,16,3Z"/>
    <path class="cls-1" d="M6.97,12.72c-.16,0-.32-.04-.48-.12-.49-.26-.67-.87-.4-1.36.9-1.65,2.95-4.59,6.69-5.77,1.03-.32,2.11-.5,3.22-.48.55,0,1,.45,1,1,0,.55-.45,1-1,1-.01,0-.03,0-.05,0-.89,0-1.75.13-2.57.39-3.06.96-4.78,3.43-5.53,4.81-.18.33-.52.52-.88.52Z"/>
    <path class="cls-1" d="M16.05,27h-.05c-.55,0-1-.45-1-1,0-.55.45-1,1-1,.01,0,.03,0,.05,0,.89,0,1.75-.13,2.57-.39,3.06-.96,4.78-3.43,5.53-4.81.26-.49.87-.67,1.36-.4.49.26.67.87.4,1.36-.9,1.65-2.95,4.59-6.69,5.77-1.01.32-2.08.48-3.17.48Z"/>
  </g>
</svg>