<?xml version="1.0" encoding="UTF-8"?>
<svg id="_프로젝트" data-name="프로젝트" xmlns="http://www.w3.org/2000/svg" viewBox="0 0 32 32">
  <defs>
    <style>
      .cls-1 {
        fill: #6ebcd6;
      }

      .cls-2 {
        fill: #444;
      }
    </style>
  </defs>
  <g id="_마크업_열기" data-name="마크업 열기">
    <g id="Blue">
      <path class="cls-1" d="M30,31h-12c-.55,0-1-.45-1-1v-5c0-.55.45-1,1-1s1,.45,1,1v4h10v-4c0-.55.45-1,1-1s1,.45,1,1v5c0,.55-.45,1-1,1Z"/>
      <path class="cls-1" d="M27.71,23.29c-.39-.39-1.02-.39-1.41,0l-1.29,1.29v-6.59c0-.55-.45-1-1-1s-1,.45-1,1v6.59l-1.29-1.29c-.39-.39-1.02-.39-1.41,0s-.39,1.02,0,1.41l3,3c.2.2.45.29.71.29s.51-.1.71-.29l3-3c.39-.39.39-1.02,0-1.41Z"/>
    </g>
    <g id="Black">
      <path class="cls-2" d="M22,11h-10c-.55,0-1-.45-1-1s.45-1,1-1h10c.55,0,1,.45,1,1s-.45,1-1,1Z"/>
      <path class="cls-2" d="M22,15h-10c-.55,0-1-.45-1-1s.45-1,1-1h10c.55,0,1,.45,1,1s-.45,1-1,1Z"/>
      <path class="cls-2" d="M21,18c0-.35.07-.69.18-1h-11.18c-.55,0-1-.45-1-1v-8c0-.55.45-1,1-1h9c.38,0,.73-.21.89-.55l1.11-2.21,1.11,2.21c.17.34.52.55.89.55h1c.55,0,1,.45,1,1v7.18c.85.3,1.51.97,1.82,1.82.11-.31.18-.65.18-1v-8c0-1.65-1.35-3-3-3h-.38l-1.72-3.45c-.34-.68-1.45-.68-1.79,0l-1.72,3.45h-8.38c-1.65,0-3,1.35-3,3v8c0,1.65,1.35,3,3,3h11v-1Z"/>
      <path class="cls-2" d="M18,22c.25,0,.48.04.71.09.06-.07.1-.15.17-.21.52-.52,1.2-.81,1.93-.86,0,0,0-.01,0-.02h-11.82c-.38,0-.73.21-.89.55l-1.11,2.21-1.11-2.21c-.17-.34-.52-.55-.89-.55h-1c-.55,0-1-.45-1-1v-8c0-.55.45-1,1-1h1v-2h-1c-1.65,0-3,1.35-3,3v8c0,1.65,1.35,3,3,3h.38l1.72,3.45c.17.34.52.55.89.55s.73-.21.89-.55l1.72-3.45h6.16c.55-.61,1.34-1,2.22-1Z"/>
    </g>
  </g>
</svg>