<?xml version="1.0" encoding="UTF-8"?>
<svg id="_프로젝트" data-name="프로젝트" xmlns="http://www.w3.org/2000/svg" viewBox="0 0 32 32">
  <defs>
    <style>
      .cls-1 {
        fill: #6ebcd6;
      }

      .cls-2 {
        fill: #444;
      }
    </style>
  </defs>
  <g id="_마크업_저장" data-name="마크업 저장">
    <g id="Black">
      <path class="cls-2" d="M22,11h-10c-.55,0-1-.45-1-1s.45-1,1-1h10c.55,0,1,.45,1,1s-.45,1-1,1Z"/>
      <path class="cls-2" d="M22,15h-10c-.55,0-1-.45-1-1s.45-1,1-1h10c.55,0,1,.45,1,1s-.45,1-1,1Z"/>
      <path class="cls-2" d="M18,21h-9c-.38,0-.73.21-.89.55l-1.11,2.21-1.11-2.21c-.17-.34-.52-.55-.89-.55h-1c-.55,0-1-.45-1-1v-8c0-.55.45-1,1-1h1v-2h-1c-1.65,0-3,1.35-3,3v8c0,1.65,1.35,3,3,3h.38l1.72,3.45c.17.34.52.55.89.55s.73-.21.89-.55l1.72-3.45h6.16c.55-.61,1.34-1,2.22-1,.06,0,.12,0,.19.01-.12-.32-.19-.66-.19-1.01Z"/>
      <path class="cls-2" d="M18.88,18.88l1.88-1.88h-10.76c-.55,0-1-.45-1-1v-8c0-.55.45-1,1-1h9c.38,0,.73-.21.89-.55l1.11-2.21,1.11,2.21c.17.34.52.55.89.55h1c.55,0,1,.45,1,1v7.18c.2.07.39.16.58.27,0,0,.02,0,.02.01.19.12.36.25.52.41l.79.79h0s.03-.09.04-.14c.03-.17.05-.34.05-.52v-8c0-1.65-1.35-3-3-3h-.38l-1.72-3.45c-.34-.68-1.45-.68-1.79,0l-1.72,3.45h-8.38c-1.65,0-3,1.35-3,3v8c0,1.65,1.35,3,3,3h8.78s.06-.08.1-.12Z"/>
    </g>
    <g id="Blue">
      <path class="cls-1" d="M30,31h-12c-.55,0-1-.45-1-1v-5c0-.55.45-1,1-1h2c.55,0,1,.45,1,1s-.45,1-1,1h-1v3h10v-3h-1c-.55,0-1-.45-1-1s.45-1,1-1h2c.55,0,1,.45,1,1v5c0,.55-.45,1-1,1Z"/>
      <path class="cls-1" d="M27.71,20.29l-3-3c-.39-.39-1.02-.39-1.41,0l-3,3c-.39.39-.39,1.02,0,1.41s1.02.39,1.41,0l1.29-1.29v6.59c0,.55.45,1,1,1s1-.45,1-1v-6.59l1.29,1.29c.2.2.45.29.71.29s.51-.1.71-.29c.39-.39.39-1.02,0-1.41Z"/>
    </g>
  </g>
</svg>