<?xml version="1.0" encoding="UTF-8"?>
<svg id="_면적" data-name="면적" xmlns="http://www.w3.org/2000/svg" viewBox="0 0 32 32">
  <defs>
    <style>
      .cls-1 {
        fill: #6ebcd6;
      }

      .cls-2 {
        fill: #444;
      }
    </style>
  </defs>
  <g id="Black-3" data-name="Black">
    <path class="cls-2" d="M29,25.18v-8.37c1.16-.41,2-1.51,2-2.82,0-1.65-1.35-3-3-3-.88,0-1.67.39-2.21.99L6.98,4.16c0-.05.02-.11.02-.16,0-1.65-1.35-3-3-3s-3,1.35-3,3c0,1.3.84,2.4,2,2.82v18.37c-1.16.41-2,1.51-2,2.82,0,1.65,1.35,3,3,3,1.3,0,2.4-.84,2.82-2h18.37c.41,1.16,1.51,2,2.82,2,1.65,0,3-1.35,3-3,0-1.3-.84-2.4-2-2.82ZM28,13c.55,0,1,.45,1,1s-.45,1-1,1-1-.45-1-1,.45-1,1-1ZM25.02,13.84c0,.05-.02.1-.02.16,0,1.3.84,2.4,2,2.82v8.37c-.85.3-1.51.97-1.82,1.82H6.82c-.3-.85-.97-1.51-1.82-1.82V6.82c.47-.17.89-.45,1.21-.81l18.8,7.83ZM4,3c.55,0,1,.45,1,1s-.45,1-1,1-1-.45-1-1,.45-1,1-1ZM4,29c-.55,0-1-.45-1-1s.45-1,1-1,1,.45,1,1-.45,1-1,1ZM28,29c-.55,0-1-.45-1-1s.45-1,1-1,1,.45,1,1-.45,1-1,1Z"/>
  </g>
  <g id="Blue-2" data-name="Blue">
    <polygon class="cls-1" points="6.47 6.11 5 7.59 5 10.41 8.47 6.95 6.47 6.11"/>
    <polygon class="cls-1" points="10.71 7.88 5 13.59 5 16.41 12.7 8.71 10.71 7.88"/>
    <polygon class="cls-1" points="14.94 9.64 5 19.59 5 22.41 16.94 10.47 14.94 9.64"/>
    <path class="cls-1" d="M19.18,11.41l-13.91,13.91c.62.3,1.12.79,1.41,1.41l14.49-14.49-2-.83Z"/>
    <path class="cls-1" d="M25.03,14.38c-.02-.13-.03-.25-.03-.38,0-.05.01-.11.02-.16l-1.6-.67-13.83,13.83h2.83l12.62-12.62Z"/>
    <path class="cls-1" d="M27,18.41v-1.6c-.29-.1-.56-.25-.8-.43l-10.61,10.61h2.83l8.59-8.59Z"/>
    <polygon class="cls-1" points="27 24.41 27 21.59 21.59 27 24.41 27 27 24.41"/>
  </g>
</svg>