<?xml version="1.0" encoding="UTF-8"?>
<svg id="_모두_초기화" data-name="모두 초기화" xmlns="http://www.w3.org/2000/svg" viewBox="0 0 32 32">
  <defs>
    <style>
      .cls-1 {
        fill: #444;
      }
    </style>
  </defs>
  <g id="Black">
    <path class="cls-1" d="M4,18c-1.65,0-3,1.35-3,3v6c0,.55.45,1,1,1s1-.45,1-1v-3h2v3c0,.55.45,1,1,1s1-.45,1-1v-6c0-1.65-1.35-3-3-3ZM3,22v-1c0-.54.46-1,1-1s1,.46,1,1v1h-2Z"/>
    <path class="cls-1" d="M16,28h-2c-.55,0-1-.45-1-1v-8c0-.55.45-1,1-1s1,.45,1,1v7h1c.55,0,1,.45,1,1s-.45,1-1,1Z"/>
    <path class="cls-1" d="M11,28h-2c-.55,0-1-.45-1-1v-8c0-.55.45-1,1-1s1,.45,1,1v7h1c.55,0,1,.45,1,1s-.45,1-1,1Z"/>
    <path class="cls-1" d="M26.61,5.39C20.95-.26,11.88-.43,6,4.85v-1.85c0-1.1-.9-2-2-2s-2,.9-2,2v7c0,1.1.9,2,2,2h7c1.1,0,2-.9,2-2s-.9-2-2-2h-2.53c4.31-4.06,11.1-3.99,15.31.22,4.29,4.29,4.29,11.27,0,15.56-1.38,1.38-3.05,2.31-4.81,2.81.02.14.03.27.03.42,0,1.65-1.35,3-3,3h-5.35c1.72.65,3.53.99,5.35.99,3.84,0,7.68-1.46,10.61-4.39,5.85-5.85,5.85-15.36,0-21.21Z"/>
  </g>
</svg>