<?xml version="1.0" encoding="UTF-8"?>
<svg id="_개체_겨키_끄기" data-name="개체 겨키/끄기" xmlns="http://www.w3.org/2000/svg" viewBox="0 0 32 32">
  <defs>
    <style>
      .cls-1 {
        fill: #6ebcd6;
      }

      .cls-2 {
        fill: #444;
        opacity: .5;
      }
    </style>
  </defs>
  <g id="_모두끄기" data-name="모두끄기">
    <g id="Black-2" data-name="Black">
      <rect class="cls-2" x="10" y="10" width="12" height="12" rx="1" ry="1"/>
      <path class="cls-2" d="M30,1H2c-.55,0-1,.45-1,1v28c0,.55.45,1,1,1h28c.55,0,1-.45,1-1V2c0-.55-.45-1-1-1ZM6,26V6h20v20H6Z"/>
    </g>
    <g id="Blue-2" data-name="Blue">
      <path class="cls-1" d="M9,11h-2v-3c0-.55.45-1,1-1h3v2h-2v2Z"/>
      <path class="cls-1" d="M25,11h-2v-2h-2v-2h3c.55,0,1,.45,1,1v3Z"/>
      <rect class="cls-1" x="17" y="7" width="2" height="2"/>
      <rect class="cls-1" x="13" y="7" width="2" height="2"/>
      <path class="cls-1" d="M24,25h-3v-2h2v-2h2v3c0,.55-.45,1-1,1Z"/>
      <rect class="cls-1" x="23" y="17" width="2" height="2"/>
      <rect class="cls-1" x="23" y="13" width="2" height="2"/>
      <path class="cls-1" d="M11,25h-3c-.55,0-1-.45-1-1v-3h2v2h2v2Z"/>
      <rect class="cls-1" x="13" y="23" width="2" height="2"/>
      <rect class="cls-1" x="17" y="23" width="2" height="2"/>
      <rect class="cls-1" x="7" y="13" width="2" height="2"/>
      <rect class="cls-1" x="7" y="17" width="2" height="2"/>
    </g>
  </g>
</svg>