<?xml version="1.0" encoding="UTF-8"?>
<svg id="_프로젝트" data-name="프로젝트" xmlns="http://www.w3.org/2000/svg" viewBox="0 0 32 32">
  <defs>
    <style>
      .cls-1 {
        fill: #6ebcd6;
      }

      .cls-2 {
        fill: #444;
      }
    </style>
  </defs>
  <g id="_모델추가" data-name="모델추가">
    <g id="Black">
      <path class="cls-2" d="M1.27,21.76l5-11c.48-1.07,1.56-1.76,2.73-1.76h13v-2c0-.55-.45-1-1-1h-10.59l-1.71-1.71c-.19-.19-.44-.29-.71-.29H2c-.55,0-1,.45-1,1v18s.01.04.01.07c0-.44.06-.89.26-1.31Z"/>
      <path class="cls-2" d="M15,22H5.55l4.09-9h14.8l-.91,2h2.2l1.18-2.59c.14-.31.11-.67-.07-.96-.18-.29-.5-.46-.84-.46H9c-.39,0-.75.23-.91.59l-5,11c-.14.31-.11.67.07.96.18.29.5.46.84.46h11v-2Z"/>
    </g>
    <g id="Blue">
      <polygon class="cls-1" points="26 22 26 17 22 17 22 22 17 22 17 26 22 26 22 31 26 31 26 26 31 26 31 22 26 22"/>
    </g>
  </g>
</svg>