<?xml version="1.0" encoding="UTF-8"?>
<svg id="_개체_선택" data-name="개체 선택" xmlns="http://www.w3.org/2000/svg" viewBox="0 0 32 32">
  <defs>
    <style>
      .cls-1 {
        fill: #6ebcd6;
      }

      .cls-2 {
        fill: #444;
      }
    </style>
  </defs>
  <g id="_모두선택" data-name="모두선택">
    <g id="Black">
      <path class="cls-2" d="M27,6h-2v-3h-3V1h4c.55,0,1,.45,1,1v4Z"/>
      <rect class="cls-2" x="15" y="1" width="5" height="2"/>
      <rect class="cls-2" x="8" y="1" width="5" height="2"/>
      <rect class="cls-2" x="15" y="25" width="3" height="2"/>
      <path class="cls-2" d="M6,1v2h-3v3H1V2c0-.55.45-1,1-1h4Z"/>
      <rect class="cls-2" x="1" y="8" width="2" height="5"/>
      <rect class="cls-2" x="1" y="15" width="2" height="5"/>
      <path class="cls-2" d="M1,22h2v3h3v2H2c-.55,0-1-.45-1-1v-4Z"/>
      <rect class="cls-2" x="8" y="25" width="5" height="2"/>
      <rect class="cls-2" x="25" y="8" width="2" height="5"/>
      <polygon class="cls-2" points="27 19.32 27 15 25 15 25 17.54 27 19.32"/>
      <path class="cls-2" d="M8,5c-1.65,0-3,1.35-3,3v6c0,.55.45,1,1,1s1-.45,1-1v-3h2v3c0,.55.45,1,1,1s1-.45,1-1v-6c0-1.65-1.35-3-3-3ZM7,9v-1c0-.54.46-1,1-1s1,.46,1,1v1h-2Z"/>
      <path class="cls-2" d="M20,15h-2c-.55,0-1-.45-1-1V6c0-.55.45-1,1-1s1,.45,1,1v7h1c.55,0,1,.45,1,1s-.45,1-1,1Z"/>
      <path class="cls-2" d="M15,15h-2c-.55,0-1-.45-1-1V6c0-.55.45-1,1-1s1,.45,1,1v7h1c.55,0,1,.45,1,1s-.45,1-1,1Z"/>
    </g>
    <g id="Blue">
      <path class="cls-1" d="M30.66,25.25l-9-8c-.3-.26-.72-.33-1.07-.16-.36.16-.59.52-.59.91v12c0,.4.24.77.62.92.12.05.25.08.38.08.26,0,.52-.1.71-.29l3.71-3.71h4.59c.42,0,.79-.26.93-.64.15-.39.04-.83-.27-1.1Z"/>
    </g>
  </g>
</svg>