<?xml version="1.0" encoding="UTF-8"?>
<svg id="_파일로_저장" data-name="파일로 저장" xmlns="http://www.w3.org/2000/svg" viewBox="0 0 32 32">
  <defs>
    <style>
      .cls-1 {
        fill: #444;
      }
    </style>
  </defs>
  <g id="Black">
    <path class="cls-1" d="M30.71,7.29l-6-6s0,0,0,0c-.08-.08-.18-.14-.29-.19-.03-.01-.06-.02-.09-.03-.09-.03-.17-.05-.27-.05-.02,0-.04-.01-.06-.01H2c-.55,0-1,.45-1,1v28c0,.55.45,1,1,1h28c.55,0,1-.45,1-1V8c0-.27-.11-.52-.29-.71ZM15,10h5c.55,0,1-.45,1-1V3h2v7c0,.55-.45,1-1,1h-12c-.55,0-1-.45-1-1V3h5v6c0,.55.45,1,1,1ZM6,18c0-.55.45-1,1-1h18c.55,0,1,.45,1,1v11H6v-11ZM19,3v5h-3V3h3Z"/>
    <path class="cls-1" d="M23,24h-14c-.55,0-1,.45-1,1s.45,1,1,1h14c.55,0,1-.45,1-1s-.45-1-1-1Z"/>
    <path class="cls-1" d="M23,20h-14c-.55,0-1,.45-1,1s.45,1,1,1h14c.55,0,1-.45,1-1s-.45-1-1-1Z"/>
  </g>
</svg>