<?xml version="1.0" encoding="UTF-8"?>
<svg id="_모서리표시" data-name="모서리표시" xmlns="http://www.w3.org/2000/svg" viewBox="0 0 32 32">
  <defs>
    <style>
      .cls-1 {
        fill: #444;
      }
    </style>
  </defs>
  <g id="Black">
    <path class="cls-1" d="M16,1C7.73,1,1,7.73,1,16s6.73,15,15,15,15-6.73,15-15S24.27,1,16,1ZM27.52,10h-5.52v-5.52c2.36,1.23,4.29,3.16,5.52,5.52ZM20,3.64v6.36h-8V3.64c1.26-.41,2.6-.64,4-.64s2.74.23,4,.64ZM20,12v8h-8v-8h8ZM10,4.48v5.52h-5.52c1.23-2.36,3.16-4.29,5.52-5.52ZM3.64,12h6.36v8H3.64c-.41-1.26-.64-2.6-.64-4s.23-2.74.64-4ZM4.48,22h5.52v5.52c-2.36-1.23-4.29-3.16-5.52-5.52ZM12,28.36v-6.36h8v6.36c-1.26.41-2.6.64-4,.64s-2.74-.23-4-.64ZM22,27.52v-5.52h5.52c-1.23,2.36-3.16,4.29-5.52,5.52ZM28.36,20h-6.36v-8h6.36c.41,1.26.64,2.6.64,4s-.23,2.74-.64,4Z"/>
  </g>
</svg>