<?xml version="1.0" encoding="UTF-8"?>
<svg id="_문자노트" data-name="문자노트" xmlns="http://www.w3.org/2000/svg" viewBox="0 0 32 32">
  <defs>
    <style>
      .cls-1 {
        fill: #6ebcd6;
      }

      .cls-2 {
        fill: #444;
      }
    </style>
  </defs>
  <g id="Blue">
    <path class="cls-1" d="M30,17h-12c-.55,0-1,.45-1,1v3c0,.55.45,1,1,1s1-.45,1-1v-2h4v10h-2c-.55,0-1,.45-1,1s.45,1,1,1h6c.55,0,1-.45,1-1s-.45-1-1-1h-2v-10h4v2c0,.55.45,1,1,1s1-.45,1-1v-3c0-.55-.45-1-1-1Z"/>
  </g>
  <g id="Black">
    <path class="cls-2" d="M13,25v-9c0-.55-.45-1-1-1H3V3h22v12h2V2c0-.55-.45-1-1-1H2c-.55,0-1,.45-1,1v14c0,.13.03.26.08.39.05.12.12.23.22.32l10,10c.09.09.2.16.32.22.12.05.25.08.39.08h9v-2h-8ZM11,23.59l-6.59-6.59h6.59v6.59Z"/>
  </g>
</svg>