<?xml version="1.0" encoding="UTF-8"?>
<svg id="_미리보기" data-name="미리보기" xmlns="http://www.w3.org/2000/svg" viewBox="0 0 32 32">
  <defs>
    <style>
      .cls-1 {
        fill: #6ebcd6;
      }

      .cls-2 {
        fill: #444;
      }
    </style>
  </defs>
  <g id="Black">
    <path class="cls-2" d="M20.76,29H7V3h11v6c0,.55.45,1,1,1h6v14.76l2,2V9c0-.27-.11-.52-.29-.71l-7-7c-.19-.19-.44-.29-.71-.29H6c-.55,0-1,.45-1,1v28c0,.55.45,1,1,1h16.76l-2-2ZM20,4.41l3.59,3.59h-3.59v-3.59Z"/>
  </g>
  <g id="Blue">
    <path class="cls-1" d="M26.71,29.29l-5-5s-.09-.05-.13-.08c.89-1.17,1.42-2.63,1.42-4.21,0-3.86-3.14-7-7-7s-7,3.14-7,7,3.14,7,7,7c1.58,0,3.04-.53,4.21-1.42.03.04.05.09.08.13l5,5c.2.2.45.29.71.29s.51-.1.71-.29c.39-.39.39-1.02,0-1.41ZM16,25c-2.76,0-5-2.24-5-5s2.24-5,5-5,5,2.24,5,5-2.24,5-5,5Z"/>
  </g>
</svg>