<?xml version="1.0" encoding="UTF-8"?>
<svg id="_방향전환" data-name="방향전환" xmlns="http://www.w3.org/2000/svg" viewBox="0 0 32 32">
  <defs>
    <style>
      .cls-1 {
        fill: #6ebcd6;
      }

      .cls-2 {
        fill: #444;
      }
    </style>
  </defs>
  <g id="Black">
    <path class="cls-2" d="M15,22.43l-8.13-2.17,7.13-1.1v-2.02l-11,1.69v-7.93l8.59-.86-1.49-1.86-5.69.57,4.55-5.2,7.03,8.79v5.42c.18-.16.37-.3.58-.41.43-.23.92-.36,1.42-.36h0v-4.17l9-1.64v7.2l1.33-.89c.21-.14.43-.24.67-.33v-7.18c0-.27-.11-.52-.29-.71L20.71,1.29c-.19-.19-.44-.29-.71-.29h-11c-.28.01-.56.12-.75.34L1.25,9.34c-.16.18-.25.42-.25.66v10c0,.45.3.85.74.97l13.26,3.54v-2.07ZM19.59,3l6.36,6.36-8.54,1.55-6.33-7.91h8.51Z"/>
  </g>
  <g id="Blue">
    <path class="cls-1" d="M30.47,19.12c-.32-.17-.72-.16-1.03.05l-3,2c-.28.19-.45.5-.45.83v6c0,.37.2.71.53.88.15.08.31.12.47.12.19,0,.39-.06.55-.17l3-2c.28-.19.45-.5.45-.83v-6c0-.37-.2-.71-.53-.88Z"/>
    <path class="cls-1" d="M21,29c-.19,0-.39-.06-.55-.17l-3-2c-.28-.19-.45-.5-.45-.83v-6c0-.37.2-.71.53-.88.32-.17.72-.16,1.03.05l3,2c.28.19.45.5.45.83v6c0,.37-.2.71-.53.88-.15.08-.31.12-.47.12ZM19,25.46l1,.67v-3.6l-1-.67v3.6Z"/>
    <rect class="cls-1" x="23" y="21" width="2" height="3"/>
    <rect class="cls-1" x="23" y="25" width="2" height="3"/>
    <path class="cls-1" d="M24,17c-.55,0-1,.45-1,1v2h2v-2c0-.55-.45-1-1-1Z"/>
    <path class="cls-1" d="M23,29v2c0,.55.45,1,1,1s1-.45,1-1v-2h-2Z"/>
  </g>
</svg>