<?xml version="1.0" encoding="UTF-8"?>
<svg id="Minus방향회전_32px" xmlns="http://www.w3.org/2000/svg" viewBox="0 0 32 32">
  <defs>
    <style>
      .cls-1 {
        fill: #6ebcd6;
      }

      .cls-2 {
        fill: #444;
      }
    </style>
  </defs>
  <g id="Black-8" data-name="Black">
    <path class="cls-2" d="M24.54,19.16c-2.79-1.78-5.64-2.16-7.54-2.16h0c-.26,0-.52.11-.71.29-.19.19-.29.44-.29.71v2.28c.3-.17.63-.28,1-.28h1v-.96c1.13.09,2.48.35,3.87.96h3.83c-.36-.29-.75-.58-1.16-.84Z"/>
    <path class="cls-2" d="M15,22c0-.22.04-.43.11-.63L3.69,13,16,3.97v4.03c0,.53.42.97.95,1,1.59.07,4.66.53,7.41,2.78,3.12,2.54,4.14,6,4.47,8.23h2.02c-.34-2.53-1.47-6.72-5.22-9.77-2.71-2.21-5.67-2.93-7.63-3.15V2c0-.38-.21-.72-.55-.89-.33-.17-.74-.14-1.04.09L1.41,12.19c-.26.19-.41.49-.41.81s.15.62.41.81l13.59,9.97v-1.77Z"/>
  </g>
  <g id="Blue-3" data-name="Blue">
    <path class="cls-1" d="M31,22h-14v4h14v-4Z"/>
  </g>
</svg>