<?xml version="1.0" encoding="UTF-8"?>
<svg id="Plus방향회전_32px" xmlns="http://www.w3.org/2000/svg" viewBox="0 0 32 32">
  <defs>
    <style>
      .cls-1 {
        fill: #6ebcd6;
      }

      .cls-2 {
        fill: #444;
      }
    </style>
  </defs>
  <g id="Black-8" data-name="Black">
    <path class="cls-2" d="M15,22c0-.74.4-1.38,1-1.72v-2.28c0-.27-.11-.52-.29-.71-.19-.19-.44-.29-.71-.29h0c-1.9,0-4.75.38-7.54,2.16-2.08,1.33-3.5,3.03-4.46,4.71v-1.87c0-1.07.18-6.59,4.63-10.22,2.75-2.24,5.83-2.7,7.41-2.78.53-.02.95-.46.95-1V3.97l12.31,9.03-2.73,2h.42c.71,0,1.33.38,1.69.94l2.9-2.13c.26-.19.41-.49.41-.81s-.15-.62-.41-.81L15.59,1.19c-.3-.22-.71-.26-1.04-.09-.34.17-.55.52-.55.89v5.08c-1.96.22-4.92.94-7.63,3.15C1.21,14.43.99,20.78,1,22v8c0,.53.41.97.94,1,.02,0,.04,0,.06,0,.5,0,.93-.38.99-.89.12-1.03.94-6.32,5.54-9.27,1.93-1.24,3.91-1.68,5.46-1.8v4.96c0,.38.21.72.55.89.14.07.3.1.45.1v-2.99Z"/>
  </g>
  <g id="Blue-3" data-name="Blue">
    <polygon class="cls-1" points="31 22 26 22 26 17 22 17 22 22 17 22 17 26 22 26 22 31 26 31 26 26 31 26 31 22"/>
  </g>
</svg>