<?xml version="1.0" encoding="UTF-8"?>
<svg id="_뷰표시" data-name="뷰표시" xmlns="http://www.w3.org/2000/svg" viewBox="0 0 32 32">
  <defs>
    <style>
      .cls-1 {
        fill: #444;
      }
    </style>
  </defs>
  <g id="_뷰툴바" data-name="뷰툴바">
    <g id="Black-3" data-name="Black">
      <path class="cls-1" d="M26.67,23.6l-1.97,1.08c.84.45,1.3.92,1.3,1.33,0,1.19-3.99,3-10,3s-10-1.81-10-3c0-.4.47-.88,1.3-1.33l-1.97-1.08c-.83.68-1.33,1.47-1.33,2.4,0,3.28,6.04,5,12,5s12-1.72,12-5c0-.93-.5-1.73-1.33-2.4Z"/>
      <path class="cls-1" d="M27.48,7.12L16.48,1.12c-.3-.16-.66-.16-.96,0L4.52,7.12c-.32.17-.52.51-.52.88v12c0,.37.2.7.52.88l11,6c.15.08.31.12.48.12s.33-.04.48-.12l11-6c.32-.17.52-.51.52-.88v-12c0-.37-.2-.7-.52-.88ZM16,3.14l8.91,4.86-8.91,4.86-8.91-4.86,8.91-4.86ZM6,9.68l9,4.91v9.72l-9-4.91v-9.72ZM17,24.32v-9.72l9-4.91v9.72l-9,4.91Z"/>
    </g>
  </g>
</svg>