<?xml version="1.0" encoding="UTF-8"?>
<svg id="_검색" data-name="검색" xmlns="http://www.w3.org/2000/svg" viewBox="0 0 32 32">
  <defs>
    <style>
      .cls-1 {
        fill: #6ebcd6;
      }

      .cls-2 {
        fill: #444;
      }
    </style>
  </defs>
  <g id="_빠른검색" data-name="빠른검색">
    <g id="Black-2" data-name="Black">
      <path class="cls-2" d="M30.41,27.59l-6-6c-.52-.52-1.26-.69-1.93-.51l-2.04-2.04c1.59-1.91,2.55-4.36,2.55-7.03,0-6.07-4.93-11-11-11S1,5.93,1,12s4.93,11,11,11c2.67,0,5.13-.96,7.03-2.55l2.04,2.04c-.18.67-.01,1.4.51,1.93l6,6c.39.39.9.59,1.41.59s1.02-.2,1.41-.59c.78-.78.78-2.05,0-2.83ZM3,12C3,7.04,7.04,3,12,3s9,4.04,9,9-4.04,9-9,9S3,16.96,3,12Z"/>
    </g>
    <g id="Blue-2" data-name="Blue">
      <path class="cls-1" d="M30,3h-9c-.55,0-1-.45-1-1s.45-1,1-1h9c.55,0,1,.45,1,1s-.45,1-1,1Z"/>
      <path class="cls-1" d="M30,7h-6c-.55,0-1-.45-1-1s.45-1,1-1h6c.55,0,1,.45,1,1s-.45,1-1,1Z"/>
      <path class="cls-1" d="M30,11h-5c-.55,0-1-.45-1-1s.45-1,1-1h5c.55,0,1,.45,1,1s-.45,1-1,1Z"/>
    </g>
  </g>
</svg>