<?xml version="1.0" encoding="UTF-8"?>
<svg id="_사용자뷰" data-name="사용자뷰" xmlns="http://www.w3.org/2000/svg" viewBox="0 0 32 32">
  <defs>
    <style>
      .cls-1 {
        fill: #444;
      }
    </style>
  </defs>
  <g id="_사용자뷰-2" data-name="사용자뷰">
    <g id="Black">
      <path class="cls-1" d="M16,26c-4.41,0-8-3.59-8-8s3.59-8,8-8,8,3.59,8,8-3.59,8-8,8ZM16,12c-3.31,0-6,2.69-6,6s2.69,6,6,6,6-2.69,6-6-2.69-6-6-6Z"/>
      <path class="cls-1" d="M16,14c-.76,0-1.46.22-2.06.59.18-.05.37-.09.56-.09,1.1,0,2,.9,2,2s-.9,2-2,2-2-.9-2-2c0-.2.04-.38.09-.56-.37.6-.59,1.3-.59,2.06,0,2.21,1.79,4,4,4s4-1.79,4-4-1.79-4-4-4Z"/>
      <path class="cls-1" d="M27,13h-2c-.55,0-1-.45-1-1s.45-1,1-1h2c.55,0,1,.45,1,1s-.45,1-1,1Z"/>
      <path class="cls-1" d="M28,28H4c-1.65,0-3-1.35-3-3v-14c0-1.65,1.35-3,3-3h5.38l1.72-3.45c.17-.34.52-.55.89-.55h8c.38,0,.72.21.89.55l1.72,3.45h5.38c1.65,0,3,1.35,3,3v14c0,1.65-1.35,3-3,3ZM4,10c-.55,0-1,.45-1,1v14c0,.55.45,1,1,1h24c.55,0,1-.45,1-1v-14c0-.55-.45-1-1-1h-6c-.38,0-.72-.21-.89-.55l-1.72-3.45h-6.76l-1.72,3.45c-.17.34-.52.55-.89.55h-6Z"/>
    </g>
  </g>
</svg>