<?xml version="1.0" encoding="UTF-8"?>
<svg id="_사용자뷰" data-name="사용자뷰" xmlns="http://www.w3.org/2000/svg" viewBox="0 0 32 32">
  <defs>
    <style>
      .cls-1 {
        fill: #444;
      }

      .cls-2 {
        fill: #ff696a;
      }
    </style>
  </defs>
  <g id="_모두삭제" data-name="모두삭제">
    <g id="Black">
      <path class="cls-1" d="M25,12h-2c-.55,0-1-.45-1-1s.45-1,1-1h2c.55,0,1,.45,1,1s-.45,1-1,1Z"/>
      <path class="cls-1" d="M16,23H4c-.55,0-1-.45-1-1v-12c0-.55.45-1,1-1h5c.38,0,.72-.21.89-.55l1.72-3.45h6.76l1.72,3.45c.17.34.52.55.89.55h5c.55,0,1,.45,1,1v5.18c.85.3,1.53.97,1.83,1.82h.17v-7c0-1.65-1.35-3-3-3h-4.38l-1.72-3.45c-.17-.34-.52-.55-.89-.55h-8c-.38,0-.72.21-.89.55l-1.72,3.45h-4.38c-1.65,0-3,1.35-3,3v12c0,1.65,1.35,3,3,3h12v-2Z"/>
      <path class="cls-1" d="M16,22.92v-.68c-.38-.34-.66-.79-.83-1.28-.21,0-.41.02-.62,0-.18-.02-.35-.02-.52-.05-.17-.03-.33-.1-.5-.15-.15-.05-.3-.08-.44-.14-.14-.06-.28-.14-.41-.22-.15-.08-.31-.15-.45-.25-.15-.1-.28-.22-.41-.34-1.09-.92-1.81-2.28-1.81-3.81s.71-2.9,1.81-3.81c.14-.11.27-.24.41-.34.14-.1.3-.17.45-.25.14-.07.27-.16.41-.22.14-.06.3-.09.44-.14.17-.05.33-.11.5-.15.17-.03.35-.04.52-.05.46-.04.92-.04,1.38.05.06.01.12.03.17.05.24.05.47.12.7.21.1.04.2.09.3.14.17.08.34.17.51.27.11.07.22.15.32.22.15.11.29.22.42.35.1.09.19.18.29.28.13.14.24.29.35.43.07.1.15.2.22.3.12.19.21.38.3.58.04.08.08.15.11.23.21.53.32,1.09.34,1.65.51-.47,1.19-.77,1.94-.79,0,0,0,0,0,0h0s0-.04-.01-.06c-.03-.18-.06-.36-.1-.53,0-.03-.01-.05-.02-.08-.05-.19-.1-.37-.16-.55,0,0,0-.01,0-.02-.33-.99-.89-1.92-1.67-2.71-.11-.11-.22-.2-.33-.3-.01,0-.02-.02-.03-.03-.14-.12-.28-.23-.42-.34-.03-.02-.06-.05-.09-.07-.13-.1-.27-.19-.41-.27-.05-.03-.1-.06-.15-.09-.13-.07-.25-.14-.38-.21-.08-.04-.16-.08-.25-.11-.11-.05-.21-.1-.32-.14-.13-.05-.27-.1-.4-.14-.06-.02-.13-.04-.19-.06-.62-.18-1.28-.28-1.96-.28-.44,0-.87.05-1.29.12-.02,0-.03,0-.05,0-.17.03-.33.08-.49.12-.06.02-.12.03-.18.05-.13.04-.25.09-.38.13-.1.03-.19.07-.29.1-.09.04-.17.08-.26.12-.13.06-.25.12-.38.18-.05.03-.09.06-.14.08-.15.09-.31.18-.45.28,0,0,0,0-.01.01-.36.24-.71.52-1.03.84h0c-1.27,1.27-2.05,3.02-2.05,4.95s.79,3.68,2.05,4.95h0c.32.32.67.6,1.03.85,0,0,0,0,.01,0,.15.1.3.19.46.28.05.03.09.06.14.08.12.07.25.12.38.18.09.04.17.08.26.12.09.04.19.07.29.1.12.05.25.09.38.13.06.02.12.03.18.05.16.04.32.09.49.12.02,0,.04,0,.06,0,.42.08.85.12,1.29.12.03,0,.07,0,.1,0,.29,0,.57-.03.86-.07.01,0,.03,0,.04,0h0Z"/>
      <path class="cls-1" d="M18,17h.86c.16-.65.16-1.34,0-2h0s-.01-.03-.02-.05c-.16-.58-.45-1.13-.87-1.6-.02-.02-.03-.04-.05-.06-.03-.04-.06-.08-.09-.12-.08-.08-.16-.13-.24-.2-.07-.06-.15-.13-.23-.19-.11-.08-.21-.15-.33-.22-.11-.06-.22-.12-.33-.17-.1-.05-.19-.09-.29-.13-.16-.06-.33-.11-.5-.15-.06-.01-.12-.04-.18-.05-.24-.04-.48-.07-.73-.07-.12,0-.23.02-.35.04-.14.01-.29.02-.43.04-.14.03-.27.08-.4.12-.12.04-.24.06-.35.11-.12.05-.23.12-.34.18-.12.06-.24.12-.35.19-.13.09-.25.2-.37.3-.08.07-.16.12-.23.19h0c-.72.73-1.17,1.73-1.17,2.83s.45,2.1,1.17,2.83h0c.07.07.16.13.23.19.12.1.24.21.37.3.11.07.23.13.35.19.11.06.22.13.34.18.11.05.23.07.35.11.13.04.26.09.4.12.14.03.29.03.43.04.12.01.23.04.35.04,0-1.65,1.35-3,3-3ZM14.84,17.98c-.08,0-.16,0-.23-.02-.06-.01-.13-.04-.19-.06-.06-.02-.13-.03-.19-.06-.05-.02-.11-.06-.16-.08-.06-.03-.13-.06-.19-.1-.05-.04-.1-.08-.15-.13-.44-.37-.73-.92-.73-1.53s.29-1.17.73-1.53c.05-.04.1-.09.15-.13.06-.04.12-.07.19-.1.05-.03.1-.06.16-.08.06-.02.12-.04.19-.06.06-.02.13-.04.19-.06.08-.01.15-.02.23-.02.06,0,.11-.01.17-.01.18,0,.35.03.51.08.04.01.08.02.12.04.17.06.33.13.47.23,0,0,.01.01.02.01.14.1.26.21.37.34.03.03.05.06.07.09.1.14.2.28.27.44.3.73.16,1.6-.43,2.19-.43.43-1.01.61-1.57.57Z"/>
    </g>
    <g id="Red">
      <path class="cls-2" d="M21.29,27.71c.2.2.45.29.71.29s.51-.1.71-.29l1.29-1.29,1.29,1.29c.2.2.45.29.71.29s.51-.1.71-.29c.39-.39.39-1.02,0-1.41l-1.29-1.29,1.29-1.29c.39-.39.39-1.02,0-1.41s-1.02-.39-1.41,0l-1.29,1.29-1.29-1.29c-.39-.39-1.02-.39-1.41,0s-.39,1.02,0,1.41l1.29,1.29-1.29,1.29c-.39.39-.39,1.02,0,1.41Z"/>
      <path class="cls-2" d="M30,19h-3v-1c0-.55-.45-1-1-1h-4c-.55,0-1,.45-1,1v1h-3c-.55,0-1,.45-1,1s.45,1,1,1v8c0,1.1.9,2,2,2h8c1.1,0,2-.9,2-2v-8c.55,0,1-.45,1-1s-.45-1-1-1ZM28,29h-8v-8h8v4h0v4Z"/>
    </g>
  </g>
</svg>