<?xml version="1.0" encoding="UTF-8"?>
<svg id="_패널" data-name="패널" xmlns="http://www.w3.org/2000/svg" viewBox="0 0 32 32">
  <defs>
    <style>
      .cls-1 {
        fill: #6ebcd6;
      }

      .cls-2 {
        fill: #444;
      }
    </style>
  </defs>
  <g id="_사용자뷰" data-name="사용자뷰">
    <g id="Black-2" data-name="Black">
      <path class="cls-2" d="M25,12h-2c-.55,0-1-.45-1-1s.45-1,1-1h2c.55,0,1,.45,1,1s-.45,1-1,1Z"/>
      <path class="cls-2" d="M26,7h-4.38l-1.72-3.45c-.17-.34-.52-.55-.89-.55h-8c-.38,0-.72.21-.89.55l-1.72,3.45h-4.38c-1.65,0-3,1.35-3,3v12c0,1.65,1.35,3,3,3h11v-2H4c-.55,0-1-.45-1-1v-12c0-.55.45-1,1-1h5c.38,0,.72-.21.89-.55l1.72-3.45h6.76l1.72,3.45c.17.34.52.55.89.55h5c.55,0,1,.45,1,1v6h2v-6c0-1.65-1.35-3-3-3Z"/>
      <path class="cls-2" d="M13,16c0-1.1.9-2,2-2s2,.9,2,2h2c0-2.21-1.79-4-4-4s-4,1.79-4,4,1.79,4,4,4v-2c-1.1,0-2-.9-2-2Z"/>
      <path class="cls-2" d="M15,9c-3.86,0-7,3.14-7,7s3.14,7,7,7v-2c-2.76,0-5-2.24-5-5s2.24-5,5-5,5,2.24,5,5h2c0-3.86-3.14-7-7-7Z"/>
    </g>
    <g id="Blue-2" data-name="Blue">
      <path class="cls-1" d="M31,30h-10v-2h10v2Z"/>
      <rect class="cls-1" x="21" y="18" width="10" height="2"/>
      <rect class="cls-1" x="21" y="23" width="10" height="2"/>
      <path class="cls-1" d="M19,30h-2v-2h2v2Z"/>
      <rect class="cls-1" x="17" y="18" width="2" height="2"/>
      <rect class="cls-1" x="17" y="23" width="2" height="2"/>
    </g>
  </g>
</svg>