<?xml version="1.0" encoding="UTF-8"?>
<svg id="_새_모델" data-name="새 모델" xmlns="http://www.w3.org/2000/svg" viewBox="0 0 32 32">
  <defs>
    <style>
      .cls-1 {
        fill: #6ebcd6;
      }

      .cls-2 {
        fill: #444;
      }
    </style>
  </defs>
  <g id="Black">
    <path class="cls-2" d="M15.52,27H5V3h12v5c0,.55.45,1,1,1h5v6.06c.33-.04.66-.06,1-.06s.67.02,1,.06v-7.06s-.01-.04-.01-.06c0-.09-.02-.17-.05-.26-.01-.03-.02-.06-.03-.09-.05-.11-.11-.21-.2-.29l-6-6c-.09-.09-.19-.15-.3-.2-.03-.01-.06-.02-.08-.03-.09-.03-.18-.05-.27-.05-.02,0-.04-.01-.05-.01H4c-.55,0-1,.45-1,1v26c0,.55.45,1,1,1h12.52c-.41-.62-.74-1.29-.99-2ZM19,4.41l2.59,2.59h-2.59v-2.59Z"/>
  </g>
  <g id="Blue">
    <g>
      <polygon class="cls-1" points="25 21 23 21 23 23 21 23 21 25 23 25 23 27 25 27 25 25 27 25 27 23 25 23 25 21"/>
      <path class="cls-1" d="M24,17c-3.86,0-7,3.14-7,7s3.14,7,7,7,7-3.14,7-7-3.14-7-7-7ZM24,29c-2.76,0-5-2.24-5-5s2.24-5,5-5,5,2.24,5,5-2.24,5-5,5Z"/>
    </g>
  </g>
</svg>