<?xml version="1.0" encoding="UTF-8"?>
<svg id="_색상" data-name="색상" xmlns="http://www.w3.org/2000/svg" viewBox="0 0 32 32">
  <defs>
    <style>
      .cls-1, .cls-2 {
        fill: #6ebcd6;
      }

      .cls-3 {
        fill: #444;
      }

      .cls-2 {
        opacity: .5;
      }
    </style>
  </defs>
  <g id="Black">
    <circle class="cls-3" cx="7" cy="25" r="2"/>
    <path class="cls-3" d="M30,19h-8.51l6.02-6.02c.39-.39.39-1.02,0-1.41l-7.07-7.07c-.19-.19-.44-.29-.71-.29s-.52.11-.71.29l-6.02,6.02V2c0-.55-.45-1-1-1H2c-.55,0-1,.45-1,1v23c0,.68.12,1.34.33,1.95.02.07.05.14.08.21.08.2.16.39.26.57.03.06.06.12.1.18.11.19.22.37.35.55.05.07.11.14.16.21.13.17.27.33.42.49.02.02.04.05.06.07s.05.04.07.06c.15.15.32.29.49.42.07.05.14.11.21.16.18.13.36.24.55.35.06.03.12.06.18.09.19.1.38.18.57.26.07.03.14.05.21.08.24.08.48.15.73.21,0,0,0,0,0,0,0,0,0,0,0,0,.4.08.81.13,1.23.13h23c.55,0,1-.45,1-1v-10c0-.55-.45-1-1-1ZM19.73,6.62l5.66,5.66-11.35,11.35-1.04-1.04v-9.24l6.73-6.73ZM8.86,30.7s.06-.02.09-.03c0,0,0,0,.01,0-.03.01-.07.03-.1.04ZM10,30.19s.03-.02.05-.03c0,0,0,0,0,0-.02.01-.04.02-.06.03ZM11,25c0,2.21-1.79,4-4,4s-4-1.79-4-4v-4h8v4ZM11,19H3V3h8v16ZM29,29H11.48l8-8h9.51v8Z"/>
  </g>
  <g id="Blue">
    <path class="cls-2" d="M13,13.34v9.66l.83.83,11.56-11.56-5.66-5.66-6.73,6.73Z"/>
    <rect class="cls-1" x="3" y="3" width="8" height="16"/>
  </g>
</svg>