<?xml version="1.0" encoding="UTF-8"?>
<svg id="_개체_선택" data-name="개체 선택" xmlns="http://www.w3.org/2000/svg" viewBox="0 0 32 32">
  <defs>
    <style>
      .cls-1 {
        fill: #6ebcd6;
      }

      .cls-2 {
        fill: #444;
      }
    </style>
  </defs>
  <g id="_선택상자-반복" data-name="선택상자-반복">
    <g id="Black">
      <path class="cls-2" d="M3,6H1V2c0-.55.45-1,1-1h4v2h-3v3Z"/>
      <path class="cls-2" d="M27,6h-2v-3h-3V1h4c.55,0,1,.45,1,1v4Z"/>
      <rect class="cls-2" x="15" y="1" width="5" height="2"/>
      <rect class="cls-2" x="8" y="1" width="5" height="2"/>
      <path class="cls-2" d="M6,27H2c-.55,0-1-.45-1-1v-4h2v3h3v2Z"/>
      <rect class="cls-2" x="1" y="8" width="2" height="5"/>
      <rect class="cls-2" x="1" y="15" width="2" height="5"/>
      <rect class="cls-2" x="25" y="8" width="2" height="5"/>
      <rect class="cls-2" x="8" y="25" width="5" height="2"/>
      <rect class="cls-2" x="15" y="25" width="3" height="2"/>
      <polygon class="cls-2" points="27 19.32 27 15 25 15 25 17.54 27 19.32"/>
      <polygon class="cls-2" points="20 13 15 13 15 8 13 8 13 13 8 13 8 15 13 15 13 20 15 20 15 15 20 15 20 13"/>
    </g>
    <g id="Blue">
      <path class="cls-1" d="M30.66,25.25l-9-8c-.3-.26-.72-.33-1.07-.16-.36.16-.59.52-.59.91v12c0,.4.24.77.62.92.12.05.25.08.38.08.26,0,.52-.1.71-.29l3.71-3.71h4.59c.42,0,.79-.26.93-.64.15-.39.04-.83-.27-1.1Z"/>
    </g>
  </g>
</svg>