<?xml version="1.0" encoding="UTF-8"?>
<svg id="_개체_선택" data-name="개체 선택" xmlns="http://www.w3.org/2000/svg" viewBox="0 0 32 32">
  <defs>
    <style>
      .cls-1 {
        fill: #6ebcd6;
      }

      .cls-2 {
        fill: #444;
      }
    </style>
  </defs>
  <g id="_선택반전" data-name="선택반전">
    <g id="Black-2" data-name="Black">
      <path class="cls-2" d="M12,27H2c-.55,0-1-.45-1-1V2c0-.55.45-1,1-1h10c.55,0,1,.45,1,1v24c0,.55-.45,1-1,1ZM3,25h8V3H3v22Z"/>
      <path class="cls-2" d="M18,18c0-1.18.7-2.25,1.77-2.74.39-.18.8-.26,1.23-.26.73,0,1.44.27,1.99.76l4.01,3.56V2c0-.55-.45-1-1-1h-10c-.55,0-1,.45-1,1v24c0,.55.45,1,1,1h2v-9Z"/>
    </g>
    <g id="Blue-2" data-name="Blue">
      <path class="cls-1" d="M30.66,25.25l-9-8c-.3-.26-.72-.33-1.07-.16-.36.16-.59.52-.59.91v12c0,.4.24.77.62.92.12.05.25.08.38.08.26,0,.52-.1.71-.29l3.71-3.71h4.59c.42,0,.79-.26.93-.64.15-.39.04-.83-.27-1.1Z"/>
    </g>
  </g>
</svg>