<?xml version="1.0" encoding="UTF-8"?>
<svg id="_선택_초기화" data-name="선택 초기화" xmlns="http://www.w3.org/2000/svg" viewBox="0 0 32 32">
  <defs>
    <style>
      .cls-1 {
        fill: #444;
      }
    </style>
  </defs>
  <g id="Black">
    <path class="cls-1" d="M26.61,5.39C20.95-.26,11.88-.43,6,4.85v-1.85c0-1.1-.9-2-2-2s-2,.9-2,2v7c0,1.1.9,2,2,2h7c1.1,0,2-.9,2-2s-.9-2-2-2h-2.53c4.31-4.06,11.1-3.99,15.31.22,4.29,4.29,4.29,11.27,0,15.56-4.29,4.29-11.27,4.29-15.56,0-.78-.78-2.05-.78-2.83,0-.78.78-.78,2.05,0,2.83,2.92,2.92,6.77,4.39,10.61,4.39s7.68-1.46,10.61-4.39c5.85-5.85,5.85-15.36,0-21.21Z"/>
  </g>
</svg>