<?xml version="1.0" encoding="UTF-8"?>
<svg id="_-" data-name="-" xmlns="http://www.w3.org/2000/svg" viewBox="0 0 32 32">
  <defs>
    <style>
      .cls-1 {
        fill: #ff696a;
      }
    </style>
  </defs>
  <g id="_전체삭제" data-name="전체삭제">
    <g id="Red">
      <path class="cls-1" d="M28,3h-7v-1c0-.55-.45-1-1-1h-8c-.55,0-1,.45-1,1v1h-7c-.55,0-1,.45-1,1s.45,1,1,1h24c.55,0,1-.45,1-1s-.45-1-1-1Z"/>
      <path class="cls-1" d="M26,6H6c-.55,0-1,.45-1,1v20c0,2.21,1.79,4,4,4h13c2.76,0,5-2.24,5-5V7c0-.55-.45-1-1-1ZM11,25.5c0,.83-.67,1.5-1.5,1.5s-1.5-.67-1.5-1.5v-15c0-.83.67-1.5,1.5-1.5s1.5.67,1.5,1.5v15ZM18,25c0,1.1-.9,2-2,2s-2-.9-2-2v-14c0-1.1.9-2,2-2s2,.9,2,2v14ZM24,25.5c0,.83-.67,1.5-1.5,1.5s-1.5-.67-1.5-1.5v-15c0-.83.67-1.5,1.5-1.5s1.5.67,1.5,1.5v15Z"/>
    </g>
  </g>
</svg>