<?xml version="1.0" encoding="UTF-8"?>
<svg id="_-" data-name="-" xmlns="http://www.w3.org/2000/svg" viewBox="0 0 32 32">
  <defs>
    <style>
      .cls-1 {
        fill: #ff696a;
      }
    </style>
  </defs>
  <g id="_선택삭제" data-name="선택삭제">
    <g id="Red">
      <path class="cls-1" d="M21.41,16l9.29-9.29c.39-.39.39-1.02,0-1.41l-4-4c-.39-.39-1.02-.39-1.41,0l-9.29,9.29L6.71,1.29c-.39-.39-1.02-.39-1.41,0L1.29,5.29c-.39.39-.39,1.02,0,1.41l9.29,9.29L1.29,25.29c-.39.39-.39,1.02,0,1.41l4,4c.2.2.45.29.71.29s.51-.1.71-.29l9.29-9.29,9.29,9.29c.2.2.45.29.71.29s.51-.1.71-.29l4-4c.39-.39.39-1.02,0-1.41l-9.29-9.29Z"/>
    </g>
  </g>
</svg>