<?xml version="1.0" encoding="UTF-8"?>
<svg id="_시작" data-name="시작" xmlns="http://www.w3.org/2000/svg" viewBox="0 0 32 32">
  <defs>
    <style>
      .cls-1 {
        fill: #444;
      }
    </style>
  </defs>
  <g id="Black">
    <path class="cls-1" d="M16,31.02c-8.27,0-15-6.73-15-15S7.73,1.02,16,1.02s15,6.73,15,15-6.73,15-15,15ZM16,3.02c-7.17,0-13,5.83-13,13s5.83,13,13,13,13-5.83,13-13S23.17,3.02,16,3.02Z"/>
    <path class="cls-1" d="M22.52,15.17l-10-6c-.31-.18-.69-.19-1.01-.01-.31.18-.51.51-.51.87v12c0,.36.19.69.51.87.15.09.32.13.49.13s.36-.05.51-.14l10-6c.3-.18.49-.51.49-.86s-.18-.68-.49-.86Z"/>
  </g>
</svg>