<?xml version="1.0" encoding="UTF-8"?>
<svg id="_스케치" data-name="스케치" xmlns="http://www.w3.org/2000/svg" viewBox="0 0 32 32">
  <defs>
    <style>
      .cls-1 {
        fill: #444;
      }
    </style>
  </defs>
  <g id="_연속선" data-name="연속선">
    <g id="Black">
      <path class="cls-1" d="M3,31c-.77,0-1.5-.44-1.83-1.19-.45-1.01,0-2.19,1.02-2.64l15.34-6.82-7.94-7.94c-.47-.47-.67-1.13-.55-1.78.12-.65.55-1.19,1.15-1.46L28.19,1.17c1.01-.45,2.19,0,2.64,1.02s0,2.19-1.02,2.64l-15.34,6.82,7.94,7.94c.47.47.67,1.13.55,1.78-.12.65-.55,1.19-1.15,1.46L3.81,30.83c-.26.12-.54.17-.81.17Z"/>
    </g>
  </g>
</svg>