<?xml version="1.0" encoding="UTF-8"?>
<svg id="_연속거리" data-name="연속거리" xmlns="http://www.w3.org/2000/svg" viewBox="0 0 32 32">
  <defs>
    <style>
      .cls-1 {
        fill: #6ebcd6;
      }

      .cls-2 {
        fill: #444;
      }
    </style>
  </defs>
  <g id="Black-2" data-name="Black">
    <path class="cls-2" d="M4,31c-1.65,0-3-1.35-3-3s1.35-3,3-3,3,1.35,3,3-1.35,3-3,3ZM4,27c-.55,0-1,.45-1,1s.45,1,1,1,1-.45,1-1-.45-1-1-1Z"/>
    <path class="cls-2" d="M28,7c-1.65,0-3-1.35-3-3s1.35-3,3-3,3,1.35,3,3-1.35,3-3,3ZM28,3c-.55,0-1,.45-1,1s.45,1,1,1,1-.45,1-1-.45-1-1-1Z"/>
    <path class="cls-2" d="M20,23c-1.65,0-3-1.35-3-3s1.35-3,3-3,3,1.35,3,3-1.35,3-3,3ZM20,19c-.55,0-1,.45-1,1s.45,1,1,1,1-.45,1-1-.45-1-1-1Z"/>
  </g>
  <g id="Blue">
    <path class="cls-1" d="M12.24,26.03l-1.38-.34,7.06-3.53c-.48-.47-.8-1.09-.89-1.79l-6.8,3.4.66-1.32c.25-.49.05-1.09-.45-1.34-.5-.25-1.09-.05-1.34.45l-2,4s0,.04-.02.06c-.04.09-.05.17-.06.26,0,.05-.02.09-.02.14,0,.1.03.2.06.3.01.03,0,.07.02.1,0,0,0,0,0,.01,0,0,0,.01,0,.02.06.12.14.21.23.29.02.02.04.03.06.05.11.08.22.14.35.18,0,0,0,0,0,0l4,1c.08.02.16.03.24.03.45,0,.86-.3.97-.76.13-.54-.19-1.08-.73-1.21Z"/>
    <path class="cls-1" d="M27.97,11.76l-1-4s-.01-.02-.02-.03c-.03-.12-.09-.22-.16-.32-.01-.02-.02-.03-.03-.05-.09-.1-.19-.19-.32-.25,0,0-.01,0-.02,0,0,0,0,0-.01,0-.03-.02-.07-.01-.1-.02-.1-.03-.2-.06-.3-.06-.05,0-.09.01-.14.02-.09.01-.18.03-.27.06-.02,0-.04,0-.06.01l-4,2c-.49.25-.69.85-.45,1.34.25.49.85.69,1.34.45l1.32-.66-3.4,6.8c.7.09,1.33.4,1.79.89l3.53-7.06.34,1.38c.11.46.52.76.97.76.08,0,.16,0,.24-.03.54-.13.86-.68.73-1.21Z"/>
  </g>
</svg>