<?xml version="1.0" encoding="UTF-8"?>
<svg id="_열기" data-name="열기" xmlns="http://www.w3.org/2000/svg" viewBox="0 0 32 32">
  <defs>
    <style>
      .cls-1 {
        fill: #444;
      }
    </style>
  </defs>
  <g id="Black">
    <path class="cls-1" d="M25,28H4c-.33,0-.64-.16-.82-.43s-.23-.62-.11-.93l5-13c.15-.39.52-.64.93-.64h21c.33,0,.64.16.82.43s.23.62.11.93l-5,13c-.15.39-.52.64-.93.64ZM5.46,26h18.86l4.23-11H9.69l-4.23,11Z"/>
    <path class="cls-1" d="M1.05,26.52c.03-.2.07-.41.15-.6l5-13c.44-1.15,1.57-1.92,2.8-1.92h17v-3c0-.55-.45-1-1-1h-11.59l-2.71-2.71c-.19-.19-.44-.29-.71-.29H2c-.55,0-1,.45-1,1v22s.02.07.02.1c0-.19,0-.39.03-.58Z"/>
  </g>
</svg>