<?xml version="1.0" encoding="UTF-8"?>
<svg id="_와이어다각형" data-name="와이어다각형" xmlns="http://www.w3.org/2000/svg" viewBox="0 0 32 32">
  <defs>
    <style>
      .cls-1 {
        fill: #444;
      }
    </style>
  </defs>
  <g id="Black">
    <path class="cls-1" d="M16,1C7.73,1,1,7.73,1,16s6.73,15,15,15,15-6.73,15-15S24.27,1,16,1ZM28.36,12c-.23-.69-.51-1.36-.84-2h-14.63c.99-3.27,2.56-5.67,3.57-6.98,5.57.2,10.25,3.9,11.9,8.97ZM14.9,3.06c-.34.03-.67.08-1,.13-1.12,1.69-2.33,3.97-3.1,6.81h-6.32c-.33.64-.62,1.3-.84,2C5.22,7.12,9.61,3.5,14.9,3.06ZM3.64,12h6.72c-.22,1.25-.35,2.58-.35,4,0,1.04.08,2.42.36,4H3.64c-.41-1.26-.64-2.6-.64-4s.23-2.74.64-4ZM3.64,20c.23.69.51,1.36.84,2h6.33c.57,2.12,1.52,4.47,3.08,6.81.33.05.67.1,1.01.13-5.28-.45-9.67-4.06-11.26-8.94ZM16.47,28.98c-1.83-2.35-2.93-4.8-3.57-6.98h14.62c.33-.64.62-1.3.84-2-1.65,5.07-6.33,8.77-11.89,8.97ZM28.36,20h-15.96c-.34-1.71-.41-3.12-.41-4,0-1.43.15-2.76.4-4h15.97c.41,1.26.64,2.6.64,4s-.23,2.74-.64,4Z"/>
  </g>
</svg>