<?xml version="1.0" encoding="UTF-8"?>
<svg id="_원근" data-name="원근" xmlns="http://www.w3.org/2000/svg" viewBox="0 0 32 32">
  <defs>
    <style>
      .cls-1 {
        fill: #444;
      }
    </style>
  </defs>
  <g id="Black">
    <path class="cls-1" d="M25.98,4.78c-.1-.46-.51-.78-.98-.78H7c-.47,0-.87.32-.98.78L1.02,26.78c-.07.3,0,.61.19.85.19.24.48.38.78.38h28c.3,0,.59-.14.78-.38.19-.24.26-.55.19-.85l-5-22ZM13,16l.45-5h5.08l.45,5h-5.99ZM19.18,18l.73,8h-7.81l.73-8h6.35ZM11,16h-5.47l1.14-5h4.79l-.45,5ZM13.64,9l.27-3h4.17l.27,3h-4.72ZM20.55,11h4.79l1.14,5h-5.47l-.45-5ZM24.88,9h-4.52l-.27-3h4.11l.68,3ZM11.9,6l-.27,3h-4.52l.68-3h4.11ZM5.07,18h5.74l-.73,8H3.25l1.82-8ZM21.91,26l-.73-8h5.74l1.82,8h-6.83Z"/>
  </g>
</svg>