<?xml version="1.0" encoding="UTF-8"?>
<svg id="_은선제거" data-name="은선제거" xmlns="http://www.w3.org/2000/svg" viewBox="0 0 32 32">
  <defs>
    <style>
      .cls-1, .cls-2 {
        fill: #444;
      }

      .cls-2 {
        opacity: .5;
      }
    </style>
  </defs>
  <g id="Black">
    <path class="cls-1" d="M16,31c-8.27,0-15-6.73-15-15S7.73,1,16,1s15,6.73,15,15-6.73,15-15,15ZM16,3c-7.17,0-13,5.83-13,13s5.83,13,13,13,13-5.83,13-13S23.17,3,16,3Z"/>
  </g>
  <g id="Alpha">
    <path class="cls-2" d="M12,16c0-6.35,2.91-10.96,4.46-12.98-.16,0-.31-.02-.46-.02-.72,0-1.42.07-2.11.19-1.83,2.75-3.89,7.12-3.89,12.81,0,2.75.55,7.81,3.89,12.81.69.11,1.39.19,2.11.19.16,0,.31-.02.47-.02-4.02-5.16-4.47-10.77-4.47-12.98Z"/>
  </g>
</svg>