<?xml version="1.0" encoding="UTF-8"?>
<svg id="_이미지노트" data-name="이미지노트" xmlns="http://www.w3.org/2000/svg" viewBox="0 0 32 32">
  <defs>
    <style>
      .cls-1 {
        fill: #6ebcd6;
      }

      .cls-2 {
        fill: #444;
      }
    </style>
  </defs>
  <g id="Black">
    <path class="cls-2" d="M13,25v-9c0-.55-.45-1-1-1H3V3h22v12h2V2c0-.55-.45-1-1-1H2c-.55,0-1,.45-1,1v14c0,.13.03.26.08.39.05.12.12.23.22.32l10,10c.09.09.2.16.32.22.17.07.32.08.39.08.3,0,1.44.01,3,0v-2h-2ZM11,23.59l-6.59-6.59h6.59v6.59Z"/>
  </g>
  <g id="Blue">
    <path class="cls-1" d="M30,17h-12c-.55,0-1,.45-1,1v12c0,.55.45,1,1,1h12c.55,0,1-.45,1-1v-12c0-.55-.45-1-1-1ZM29,19v5l-1.2-1.6c-.17-.23-.44-.38-.73-.4-.28-.02-.57.09-.78.29l-3.29,3.29-1.29-1.29c-.39-.39-1.02-.39-1.41,0l-1.29,1.29v-6.59h10ZM19,29v-.59l2-2,1.29,1.29c.39.39,1.02.39,1.41,0l3.18-3.18,2.11,2.81v1.67h-10Z"/>
    <path class="cls-1" d="M21.5,23c.83,0,1.5-.67,1.5-1.5s-.67-1.5-1.5-1.5-1.5.67-1.5,1.5.67,1.5,1.5,1.5ZM21.5,21c.28,0,.5.22.5.5s-.22.5-.5.5-.5-.22-.5-.5.22-.5.5-.5Z"/>
  </g>
</svg>