<?xml version="1.0" encoding="UTF-8"?>
<svg id="_스케치" data-name="스케치" xmlns="http://www.w3.org/2000/svg" viewBox="0 0 32 32">
  <defs>
    <style>
      .cls-1 {
        fill: #444;
      }
    </style>
  </defs>
  <g id="_자유곡선" data-name="자유곡선">
    <g id="Black">
      <path class="cls-1" d="M3,31c-.93,0-1.76-.65-1.96-1.59-.22-1.08.47-2.14,1.55-2.36,11.59-2.4,13.25-5.24,13.43-6.35.15-.97-.52-1.97-1.64-3.5-1.24-1.7-2.79-3.81-2.36-6.5.7-4.39,5.96-7.45,16.57-9.65,1.08-.23,2.14.47,2.36,1.55.22,1.08-.47,2.14-1.55,2.36-11.59,2.4-13.25,5.24-13.43,6.35-.15.97.52,1.97,1.64,3.51,1.24,1.7,2.79,3.81,2.36,6.49-.7,4.39-5.96,7.45-16.57,9.65-.14.03-.27.04-.41.04Z"/>
    </g>
  </g>
</svg>