<?xml version="1.0" encoding="UTF-8"?>
<svg id="_핸들" data-name="핸들" xmlns="http://www.w3.org/2000/svg" viewBox="0 0 32 32">
  <defs>
    <style>
      .cls-1 {
        fill: #444;
      }
    </style>
  </defs>
  <g id="Black">
    <path class="cls-1" d="M20.22,3.72c3.78,1.3,6.76,4.29,8.06,8.07l2.41,1.21c-1.2-5.86-5.82-10.48-11.67-11.69l1.2,2.41Z"/>
    <path class="cls-1" d="M3.71,11.79c1.3-3.78,4.29-6.77,8.06-8.07l1.2-2.41C7.12,2.51,2.5,7.14,1.3,12.99l2.41-1.21Z"/>
    <path class="cls-1" d="M28.29,20.21c-1.3,3.78-4.29,6.77-8.08,8.08l-1.21,2.41c5.86-1.2,10.49-5.83,11.69-11.69l-2.41,1.21Z"/>
    <path class="cls-1" d="M11.79,28.29c-3.78-1.3-6.78-4.29-8.08-8.08l-2.41-1.21c1.2,5.86,5.83,10.49,11.69,11.69l-1.21-2.41Z"/>
    <path class="cls-1" d="M18.5,24h-5c-.35,0-.67.18-.85.47-.18.29-.2.66-.04.97l2.5,5c.17.34.52.55.89.55s.73-.21.89-.55l2.5-5c.16-.31.14-.68-.04-.97-.18-.29-.5-.47-.85-.47Z"/>
    <path class="cls-1" d="M16.89,1.51c-.34-.68-1.45-.68-1.79,0l-2.5,5.03c-.16.31-.14.68.04.98.18.3.5.48.85.48h5c.35,0,.67-.18.85-.48.18-.3.2-.67.04-.98l-2.5-5.03Z"/>
    <path class="cls-1" d="M30.45,15.11l-5-2.5c-.31-.16-.68-.14-.97.04-.29.18-.47.5-.47.85v5c0,.35.18.67.47.85.16.1.34.15.53.15.15,0,.31-.04.45-.11l5-2.5c.34-.17.55-.52.55-.89s-.21-.73-.55-.89Z"/>
    <path class="cls-1" d="M7.53,12.65c-.29-.18-.66-.2-.97-.04l-5,2.5c-.34.17-.55.52-.55.89s.21.73.55.89l5,2.5c.14.07.29.11.45.11.18,0,.37-.05.53-.15.29-.18.47-.5.47-.85v-5c0-.35-.18-.67-.47-.85Z"/>
    <path class="cls-1" d="M19,20h-6c-.55,0-1-.45-1-1v-6c0-.55.45-1,1-1h6c.55,0,1,.45,1,1v6c0,.55-.45,1-1,1ZM14,18h4v-4h-4v4Z"/>
  </g>
</svg>