<?xml version="1.0" encoding="UTF-8"?>
<svg id="_좌표" data-name="좌표" xmlns="http://www.w3.org/2000/svg" viewBox="0 0 32 32">
  <defs>
    <style>
      .cls-1 {
        fill: #6ebcd6;
      }

      .cls-2 {
        fill: #444;
      }
    </style>
  </defs>
  <g id="Black-2" data-name="Black">
    <path class="cls-2" d="M4,31c-1.65,0-3-1.35-3-3s1.35-3,3-3,3,1.35,3,3-1.35,3-3,3ZM4,27c-.55,0-1,.45-1,1s.45,1,1,1,1-.45,1-1-.45-1-1-1Z"/>
    <rect class="cls-2" x="4.72" y="18.5" width="15.56" height="2" transform="translate(-10.13 14.55) rotate(-45)"/>
  </g>
  <g id="Blue">
    <path class="cls-1" d="M16.45,1.11c-.49-.25-1.1-.05-1.34.45l-1.11,2.21-1.11-2.21c-.25-.49-.85-.69-1.34-.45-.49.25-.69.85-.45,1.34l1.78,3.55-1.78,3.55c-.25.49-.05,1.09.45,1.34.14.07.3.11.45.11.37,0,.72-.2.9-.55l1.11-2.21,1.11,2.21c.17.35.53.55.9.55.15,0,.3-.03.45-.11.49-.25.69-.85.45-1.34l-1.78-3.55,1.78-3.55c.25-.49.05-1.09-.45-1.34Z"/>
    <path class="cls-1" d="M30,9h-2.38l3.28-6.55c.16-.31.14-.68-.04-.97s-.5-.47-.85-.47h-4c-.55,0-1,.45-1,1s.45,1,1,1h2.38l-3.28,6.55c-.16.31-.14.68.04.97s.5.47.85.47h4c.55,0,1-.45,1-1s-.45-1-1-1Z"/>
    <path class="cls-1" d="M23.45,1.11c-.49-.25-1.09-.05-1.34.45l-1.11,2.21-1.11-2.21c-.25-.49-.85-.69-1.34-.45-.49.25-.69.85-.45,1.34l1.89,3.79v3.76c0,.55.45,1,1,1s1-.45,1-1v-3.76l1.89-3.79c.25-.49.05-1.09-.45-1.34Z"/>
  </g>
</svg>