<?xml version="1.0" encoding="UTF-8"?>
<svg id="_뷰표시" data-name="뷰표시" xmlns="http://www.w3.org/2000/svg" viewBox="0 0 32 32">
  <defs>
    <style>
      .cls-1 {
        fill: #444;
      }
    </style>
  </defs>
  <g id="_좌표축" data-name="좌표축">
    <g id="Black-3" data-name="Black">
      <path class="cls-1" d="M10,29h-5.59l3.4-3.4c-.54-.4-1.01-.88-1.41-1.41l-3.4,3.4v-5.59c0-.55-.45-1-1-1s-1,.45-1,1v8c0,.55.45,1,1,1h8c.55,0,1-.45,1-1s-.45-1-1-1Z"/>
      <g>
        <path class="cls-1" d="M7.71,7.71l3.29-3.29v8.67c.33-.05.66-.08,1-.08s.67.03,1,.08V4.41l3.29,3.29c.2.2.45.29.71.29s.51-.1.71-.29c.39-.39.39-1.02,0-1.41L12.71,1.29c-.38-.38-1.04-.38-1.41,0l-5,5c-.39.39-.39,1.02,0,1.41s1.02.39,1.41,0Z"/>
        <path class="cls-1" d="M30.71,19.29l-5-5c-.39-.39-1.02-.39-1.41,0s-.39,1.02,0,1.41l3.29,3.29h-8.67c.05.33.08.66.08,1s-.03.67-.08,1h8.67l-3.29,3.29c-.39.39-.39,1.02,0,1.41.2.2.45.29.71.29s.51-.1.71-.29l5-5c.39-.39.39-1.02,0-1.41Z"/>
      </g>
      <path class="cls-1" d="M12,25c-2.76,0-5-2.24-5-5s2.24-5,5-5,5,2.24,5,5-2.24,5-5,5ZM12,17c-1.65,0-3,1.35-3,3s1.35,3,3,3,3-1.35,3-3-1.35-3-3-3Z"/>
    </g>
  </g>
</svg>