<?xml version="1.0" encoding="UTF-8"?>
<svg id="_기본" data-name="기본" xmlns="http://www.w3.org/2000/svg" viewBox="0 0 32 32">
  <defs>
    <style>
      .cls-1 {
        fill: #444;
      }
    </style>
  </defs>
  <g id="_초기_위치로" data-name="초기 위치로">
    <g id="Black">
      <path class="cls-1" d="M13,31H2c-.55,0-1-.45-1-1v-11h2v10h10v2Z"/>
      <path class="cls-1" d="M3,13H1V2c0-.55.45-1,1-1h11v2H3v10Z"/>
      <path class="cls-1" d="M30,31h-11v-2h10v-10h2v11c0,.55-.45,1-1,1Z"/>
      <path class="cls-1" d="M31,13h-2V3h-10V1h11c.55,0,1,.45,1,1v11Z"/>
      <path class="cls-1" d="M24,27h-6c-.55,0-1-.45-1-1v-5h-3v5c0,.55-.45,1-1,1h-5c-.55,0-1-.45-1-1v-8h-2c-.4,0-.77-.24-.92-.62-.15-.37-.07-.8.22-1.09L15.29,5.29c.39-.39,1.02-.39,1.41,0l1.36,1.36c.14-.38.51-.65.94-.65h4c.55,0,1,.45,1,1v5.59l3.71,3.71c.29.29.37.72.22,1.09-.15.37-.52.62-.92.62h-2v8c0,.55-.45,1-1,1ZM19,25h4v-8c0-.55.45-1,1-1h.59l-2.29-2.29c-.19-.19-.29-.44-.29-.71v-5h-2v1c0,.4-.24.77-.62.92-.38.15-.8.07-1.09-.22l-2.29-2.29-8.59,8.59h.59c.55,0,1,.45,1,1v8h3v-5c0-.55.45-1,1-1h5c.55,0,1,.45,1,1v5Z"/>
    </g>
  </g>
</svg>