<?xml version="1.0" encoding="UTF-8"?>
<svg id="_최단거리" data-name="최단거리" xmlns="http://www.w3.org/2000/svg" viewBox="0 0 32 32">
  <defs>
    <style>
      .cls-1 {
        fill: #6ebcd6;
      }

      .cls-2 {
        fill: #444;
      }
    </style>
  </defs>
  <g id="Black-3" data-name="Black">
    <path class="cls-2" d="M3.5,31.5c-1.65,0-3-1.35-3-3s1.35-3,3-3,3,1.35,3,3-1.35,3-3,3ZM3.5,27.5c-.55,0-1,.45-1,1s.45,1,1,1,1-.45,1-1-.45-1-1-1Z"/>
    <path class="cls-2" d="M28,7c-1.65,0-3-1.35-3-3s1.35-3,3-3,3,1.35,3,3-1.35,3-3,3ZM28,3c-.55,0-1,.45-1,1s.45,1,1,1,1-.45,1-1-.45-1-1-1Z"/>
  </g>
  <g id="Blue-2" data-name="Blue">
    <path class="cls-1" d="M25,13c-.55,0-1-.45-1-1v-4h-4c-.55,0-1-.45-1-1s.45-1,1-1h5c.55,0,1,.45,1,1v5c0,.55-.45,1-1,1Z"/>
    <path class="cls-1" d="M21.92,10.62c-.1-.24-.3-.44-.54-.54-.12-.05-.25-.08-.38-.08h-5c-.55,0-1,.45-1,1s.45,1,1,1h2.59l-12.29,12.29c-.39.39-.39,1.02,0,1.41.2.2.45.29.71.29s.51-.1.71-.29l12.29-12.29v2.59c0,.55.45,1,1,1s1-.45,1-1v-5c0-.13-.03-.26-.08-.38Z"/>
  </g>
</svg>