<?xml version="1.0" encoding="UTF-8"?>
<svg id="_축_거리측정Y" data-name="축 거리측정Y" xmlns="http://www.w3.org/2000/svg" viewBox="0 0 32 32">
  <defs>
    <style>
      .cls-1 {
        fill: #6ebcd6;
      }

      .cls-2 {
        fill: #444;
      }
    </style>
  </defs>
  <g id="Black-2" data-name="Black">
    <path class="cls-2" d="M28,2c-1.65,0-3,1.35-3,3,0,.48.12.92.32,1.32l-.03-.03-1.06,1.06,1.41,1.41,1.06-1.06-.03-.03c.4.2.84.32,1.32.32,1.65,0,3-1.35,3-3s-1.35-3-3-3ZM28,6c-.55,0-1-.45-1-1s.45-1,1-1,1,.45,1,1-.45,1-1,1Z"/>
    <rect class="cls-2" x="9.55" y="21.13" width="2.65" height="2" transform="translate(-12.46 14.17) rotate(-45)"/>
    <rect class="cls-2" x="20.8" y="9.87" width="2.65" height="2" transform="translate(-1.21 18.83) rotate(-45)"/>
    <rect class="cls-2" x="17.05" y="13.62" width="2.65" height="2" transform="translate(-4.96 17.28) rotate(-45)"/>
    <rect class="cls-2" x="13.3" y="17.38" width="2.65" height="2" transform="translate(-8.71 15.72) rotate(-45)"/>
    <path class="cls-2" d="M8.77,25.65l-1.41-1.41-1.06,1.06.03.03c-.1-.05-.21-.1-.32-.13v-14.96s-.08-.06-.12-.1l-1.88-1.88v16.94c-1.16.41-2,1.51-2,2.82,0,1.65,1.35,3,3,3s3-1.35,3-3c0-.48-.12-.92-.32-1.32l.03.03,1.06-1.06ZM5,29c-.55,0-1-.45-1-1s.45-1,1-1,1,.45,1,1-.45,1-1,1Z"/>
  </g>
  <g id="Blue">
    <path class="cls-1" d="M27.45,19.11c-.49-.25-1.09-.05-1.34.45l-1.11,2.21-1.11-2.21c-.25-.49-.85-.7-1.34-.45-.49.25-.69.85-.45,1.34l1.89,3.79v3.76c0,.55.45,1,1,1s1-.45,1-1v-3.76l1.89-3.79c.25-.49.05-1.09-.45-1.34Z"/>
    <path class="cls-1" d="M24.92,5.38c.1-.24.1-.52,0-.76-.05-.12-.12-.23-.22-.33l-3-3c-.39-.39-1.02-.39-1.41,0s-.39,1.02,0,1.41l1.29,1.29H7.41l1.29-1.29c.39-.39.39-1.02,0-1.41s-1.02-.39-1.41,0l-3,3c-.09.09-.17.2-.22.33-.1.24-.1.52,0,.76.05.12.12.23.22.33l3,3c.2.2.45.29.71.29s.51-.1.71-.29c.39-.39.39-1.02,0-1.41l-1.29-1.29h14.17l-1.29,1.29c-.39.39-.39,1.02,0,1.41.2.2.45.29.71.29s.51-.1.71-.29l3-3c.09-.09.17-.2.22-.33Z"/>
  </g>
</svg>