<?xml version="1.0" encoding="UTF-8"?>
<svg id="_모두보이기" data-name="모두보이기" xmlns="http://www.w3.org/2000/svg" viewBox="0 0 32 32">
  <defs>
    <style>
      .cls-1 {
        fill: #444;
      }
    </style>
  </defs>
  <g id="Black-2" data-name="Black">
    <path class="cls-1" d="M18,21c-1.65,0-3,1.35-3,3v6c0,.55.45,1,1,1s1-.45,1-1v-3h2v3c0,.55.45,1,1,1s1-.45,1-1v-6c0-1.65-1.35-3-3-3ZM17,25v-1c0-.54.46-1,1-1s1,.46,1,1v1h-2Z"/>
    <path class="cls-1" d="M30,31h-2c-.55,0-1-.45-1-1v-8c0-.55.45-1,1-1s1,.45,1,1v7h1c.55,0,1,.45,1,1s-.45,1-1,1Z"/>
    <path class="cls-1" d="M25,31h-2c-.55,0-1-.45-1-1v-8c0-.55.45-1,1-1s1,.45,1,1v7h1c.55,0,1,.45,1,1s-.45,1-1,1Z"/>
    <path class="cls-1" d="M14,8c-.41,0-.79.08-1.16.19.68.32,1.16,1.01,1.16,1.81,0,1.1-.9,2-2,2-.8,0-1.49-.48-1.81-1.16-.11.37-.19.75-.19,1.16,0,2.21,1.79,4,4,4s4-1.79,4-4-1.79-4-4-4Z"/>
    <path class="cls-1" d="M26.87,11.51c-2.62-4.63-7.55-7.51-12.87-7.51S3.75,6.88,1.13,11.51c-.17.31-.17.68,0,.98,2.62,4.63,7.55,7.51,12.87,7.51s10.25-2.88,12.87-7.51c.17-.31.17-.68,0-.98ZM14,18c-3.31,0-6-2.69-6-6s2.69-6,6-6,6,2.69,6,6-2.69,6-6,6Z"/>
  </g>
</svg>