<?xml version="1.0" encoding="UTF-8"?>
<svg id="_클립보드로_복사" data-name="클립보드로 복사" xmlns="http://www.w3.org/2000/svg" viewBox="0 0 32 32">
  <defs>
    <style>
      .cls-1 {
        fill: #6ebcd6;
      }

      .cls-2 {
        fill: #444;
      }
    </style>
  </defs>
  <g id="Black">
    <path class="cls-2" d="M27,3h-6v-1c0-.55-.45-1-1-1h-8c-.55,0-1,.45-1,1v1h-6c-.55,0-1,.45-1,1v26c0,.55.45,1,1,1h22c.55,0,1-.45,1-1V4c0-.55-.45-1-1-1ZM13,3h6v2h-6v-2ZM11,5v1c0,.55.45,1,1,1h8c.55,0,1-.45,1-1v-1h2v21h-14V5h2ZM26,29H6V5h1v22c0,.55.45,1,1,1h16c.55,0,1-.45,1-1V5h1v24Z"/>
  </g>
  <g id="Blue">
    <path class="cls-1" d="M21,14h-2v-2.5c0-.55-.45-1-1-1h-6.5c-.55,0-1,.45-1,1v6.5c0,.55.45,1,1,1h2.5v2c0,.55.45,1,1,1h6c.55,0,1-.45,1-1v-6c0-.55-.45-1-1-1ZM12.5,12.5h4.5v4.5h-4.5v-4.5ZM20,20h-4v-1h2c.55,0,1-.45,1-1v-2h1v4Z"/>
  </g>
</svg>