<?xml version="1.0" encoding="UTF-8"?>
<svg id="_스케치" data-name="스케치" xmlns="http://www.w3.org/2000/svg" viewBox="0 0 32 32">
  <defs>
    <style>
      .cls-1 {
        fill: #444;
      }
    </style>
  </defs>
  <g id="_펜" data-name="펜">
    <g id="Black">
      <path class="cls-1" d="M30,31H2c-.55,0-1-.45-1-1s.45-1,1-1h28c.55,0,1,.45,1,1s-.45,1-1,1Z"/>
      <path class="cls-1" d="M28.71,11.29L18.71,1.29c-.38-.38-1.04-.38-1.41,0l-4,4c-.39.39-.39,1.02,0,1.41l.29.29-1.13,1.13-5.78,1.93c-.31.1-.55.36-.65.67l-4,14c-.1.35,0,.73.25.98l2,2c.19.19.45.29.71.29.09,0,.18-.01.27-.04l14-4c.32-.09.57-.33.67-.65l1.93-5.78,1.13-1.13.29.29c.19.19.44.29.71.29s.52-.11.71-.29l4-4c.39-.39.39-1.02,0-1.41ZM20.29,16.29c-.11.11-.19.24-.24.39l-1.83,5.5-12.58,3.59,5.07-5.07s.07-.11.11-.16c.5.28,1.07.45,1.69.45,1.93,0,3.5-1.57,3.5-3.5s-1.57-3.5-3.5-3.5-3.5,1.57-3.5,3.5c0,.61.17,1.18.45,1.69-.05.04-.11.06-.16.11l-5.07,5.07,3.59-12.58,5.5-1.83c.15-.05.28-.13.39-.24l1.29-1.29,6.59,6.59-1.29,1.29ZM11,17.5c0-.83.67-1.5,1.5-1.5s1.5.67,1.5,1.5-.67,1.5-1.5,1.5-1.5-.67-1.5-1.5ZM24,14.59l-.29-.29L15.71,6.29l-.29-.29,2.59-2.59,8.59,8.59-2.59,2.59Z"/>
    </g>
  </g>
</svg>