<?xml version="1.0" encoding="UTF-8"?>
<svg id="_평행면거리" data-name="평행면거리" xmlns="http://www.w3.org/2000/svg" viewBox="0 0 32 32">
  <defs>
    <style>
      .cls-1 {
        fill: #6ebcd6;
      }

      .cls-2 {
        fill: #444;
      }
    </style>
  </defs>
  <g id="Black-2" data-name="Black">
    <polygon class="cls-2" points="9 16 9 16 9 16 9 16"/>
    <polygon class="cls-2" points="9 18 9 18 9 18 9 18"/>
    <path class="cls-2" d="M7,19v.53l-4,3.33v-8.4l4-3.33v3.87l2-1.5v-4.5c0-.39-.22-.74-.58-.91-.35-.16-.76-.11-1.06.14L1.36,13.23c-.23.19-.36.47-.36.77v11c0,.39.22.74.58.91.13.06.28.09.42.09.23,0,.46-.08.64-.23l6-5c.11-.09.2-.21.26-.34l-1.9-1.43Z"/>
    <path class="cls-2" d="M24,26c-.14,0-.29-.03-.42-.09-.35-.16-.58-.52-.58-.91v-11c0-.3.13-.58.36-.77l6-5c.3-.25.72-.3,1.06-.14.35.16.58.52.58.91v11c0,.3-.13.58-.36.77l-6,5c-.18.15-.41.23-.64.23ZM25,14.47v8.4l4-3.33v-8.4l-4,3.33Z"/>
  </g>
  <g id="Blue">
    <path class="cls-1" d="M23,16v-2c0-.15.03-.29.1-.43l-.5-.37c-.44-.33-1.07-.24-1.4.2-.33.44-.24,1.07.2,1.4l1.6,1.2Z"/>
    <path class="cls-1" d="M26.6,17.8s.02-.03.04-.05c.08-.07.14-.15.2-.23.02-.03.05-.06.07-.1.06-.13.1-.27.1-.42s-.04-.29-.1-.42c-.02-.04-.05-.06-.07-.1-.06-.09-.12-.17-.2-.23-.02-.01-.02-.03-.04-.05l-1.6-1.2v4l1.6-1.2Z"/>
    <path class="cls-1" d="M9,18h14v-2h-14l1.6-1.2c.44-.33.53-.96.2-1.4-.33-.44-.96-.53-1.4-.2l-4,3s-.02.03-.04.05c-.08.07-.14.15-.2.23-.02.03-.05.06-.07.1-.06.13-.1.27-.1.42s.04.29.1.42c.02.04.05.06.07.1.06.09.12.17.2.23.02.01.02.03.04.05l4,3c.18.13.39.2.6.2.3,0,.6-.14.8-.4.33-.44.24-1.07-.2-1.4l-1.6-1.2Z"/>
    <path class="cls-1" d="M23,18l-1.6,1.2c-.44.33-.53.96-.2,1.4.2.26.5.4.8.4.21,0,.42-.07.6-.2l.4-.3v-2.5Z"/>
  </g>
</svg>