<?xml version="1.0" encoding="UTF-8"?>
<svg id="_표면노트_지시선_" data-name="표면노트(지시선)" xmlns="http://www.w3.org/2000/svg" viewBox="0 0 32 32">
  <defs>
    <style>
      .cls-1 {
        fill: #6ebcd6;
      }

      .cls-2 {
        fill: #444;
      }
    </style>
  </defs>
  <g id="Black">
    <path class="cls-2" d="M16,1H2c-.55,0-1,.45-1,1v8c0,.27.11.52.29.71l6,6c.19.19.44.29.71.29h8c.55,0,1-.45,1-1V2c0-.55-.45-1-1-1ZM7,13.59l-2.59-2.59h2.59v2.59ZM15,15h-6v-5c0-.55-.45-1-1-1H3V3h12v12Z"/>
    <path class="cls-2" d="M30.45,19.11l-6-3c-.28-.14-.61-.14-.89,0l-6,3c-.34.17-.55.52-.55.89v2.38l.75,1.64c.09,0,.17-.03.25-.03.35,0,.69.07,1,.18v-3.57l5-2.5,5,2.5v5.76l-5,2.5-3.04-1.52c-.09.7-.4,1.33-.89,1.79l3.48,1.74c.14.07.29.11.45.11s.31-.04.45-.11l6-3c.34-.17.55-.52.55-.89v-7c0-.38-.21-.73-.55-.89Z"/>
  </g>
  <g id="Blue">
    <path class="cls-1" d="M18,24c-.09,0-.17.02-.25.03l-3.19-7.03h-2.2l3.57,7.84c-.57.55-.92,1.31-.92,2.16,0,1.65,1.35,3,3,3s3-1.35,3-3-1.35-3-3-3ZM18,28c-.55,0-1-.45-1-1s.45-1,1-1,1,.45,1,1-.45,1-1,1Z"/>
  </g>
</svg>