<?xml version="1.0" encoding="UTF-8"?>
<svg id="_기본" data-name="기본" xmlns="http://www.w3.org/2000/svg" viewBox="0 0 32 32">
  <defs>
    <style>
      .cls-1 {
        fill: #444;
      }
    </style>
  </defs>
  <g id="_화면에_맞춤" data-name="화면에 맞춤">
    <g id="Black">
      <path class="cls-1" d="M12,31H2c-.55,0-1-.45-1-1v-10h2v9h9v2Z"/>
      <path class="cls-1" d="M3,12H1V2c0-.55.45-1,1-1h10v2H3v9Z"/>
      <path class="cls-1" d="M30,31h-10v-2h9v-9h2v10c0,.55-.45,1-1,1Z"/>
      <path class="cls-1" d="M31,12h-2V3h-9V1h10c.55,0,1,.45,1,1v10Z"/>
      <path class="cls-1" d="M19,20h-6c-.55,0-1-.45-1-1v-6c0-.55.45-1,1-1h6c.55,0,1,.45,1,1v6c0,.55-.45,1-1,1ZM14,18h4v-4h-4v4Z"/>
      <path class="cls-1" d="M20.29,11.71c.39.39,1.02.39,1.41,0l3.29-3.29v3.59h2v-6s0,0,0,0c0-.13-.03-.26-.08-.38-.1-.24-.3-.44-.54-.54-.12-.05-.25-.08-.38-.08h-6v2h3.59l-3.29,3.29c-.39.39-.39,1.02,0,1.41Z"/>
      <path class="cls-1" d="M5,26.01s0,.02,0,.04c0,.07.02.2.07.33.1.24.3.44.54.54.17.07.33.08.38.08.43,0,2.78,0,6,0v-2h-3.59l3.29-3.29c.39-.39.39-1.02,0-1.41-.2-.2-.45-.29-.71-.29s-.51.1-.71.29l-3.29,3.29v-3.59h-2c0,2.93,0,5.85,0,6.01Z"/>
    </g>
  </g>
</svg>