<?xml version="1.0" encoding="UTF-8"?>
<svg id="_스케치" data-name="스케치" xmlns="http://www.w3.org/2000/svg" viewBox="0 0 32 32">
  <defs>
    <style>
      .cls-1 {
        fill: #444;
      }
    </style>
  </defs>
  <g id="_화살표" data-name="화살표">
    <g id="Black">
      <path class="cls-1" d="M30.96,2.61c-.01-.06-.03-.11-.05-.17-.02-.07-.04-.14-.06-.2-.03-.07-.07-.13-.1-.19-.03-.05-.05-.1-.08-.15-.15-.22-.34-.41-.55-.55-.05-.03-.1-.05-.15-.08-.06-.04-.13-.07-.2-.1-.07-.03-.13-.04-.2-.06-.06-.02-.11-.04-.17-.05-.13-.03-.26-.04-.39-.04h-12c-1.1,0-2,.9-2,2s.9,2,2,2h7.17L1.59,27.59c-.78.78-.78,2.05,0,2.83.39.39.9.59,1.41.59s1.02-.2,1.41-.59L27,7.83v7.17c0,1.1.9,2,2,2s2-.9,2-2V3c0-.13-.01-.26-.04-.39Z"/>
    </g>
  </g>
</svg>