<?xml version="1.0" encoding="UTF-8"?>
<svg id="_환경조명" data-name="환경조명" xmlns="http://www.w3.org/2000/svg" viewBox="0 0 32 32">
  <defs>
    <style>
      .cls-1 {
        fill: #444;
      }
    </style>
  </defs>
  <g id="Black">
    <path class="cls-1" d="M16.02,1C7.76,1,1.04,7.73,1.04,16s6.72,15,14.98,15,14.98-6.73,14.98-15S24.28,1,16.02,1ZM3.12,17.45c1.42.56,3.06,1.11,4.91,1.55,3.03.73,5.75.97,7.97,1,0-5.67.01-11.33.02-17h0c7.16,0,12.98,5.83,12.98,13,0,1.66-.32,3.23-.89,4.69l-.4-.4c-.39-.39-1.02-.39-1.42,0-.39.39-.39,1.02,0,1.41l.89.89c-.27.45-.56.88-.87,1.29l-3.59-3.6c-.39-.39-1.02-.39-1.41,0-.39.39-.39,1.02,0,1.41l3.67,3.68c-.38.36-.78.69-1.19,1.01-.02-.03-.04-.07-.07-.1l-5.99-6c-.39-.39-1.02-.39-1.42,0-.39.39-.39,1.02,0,1.41l5.77,5.78c-.48.26-.98.47-1.5.67l-2.86-2.86c-.39-.39-1.02-.39-1.41,0-.39.39-.39,1.02,0,1.41l2.07,2.07c-.77.14-1.55.23-2.36.23-6.67,0-12.18-5.06-12.9-11.55Z"/>
  </g>
</svg>