<?xml version="1.0" encoding="UTF-8"?>
<svg id="_회전_이동" data-name="회전/이동" xmlns="http://www.w3.org/2000/svg" viewBox="0 0 32 32">
  <defs>
    <style>
      .cls-1 {
        fill: #6ebcd6;
      }

      .cls-2 {
        fill: #444;
      }
    </style>
  </defs>
  <g id="Blue">
    <circle class="cls-1" cx="23" cy="29" r="2"/>
    <circle class="cls-1" cx="28" cy="24" r="2"/>
    <circle class="cls-1" cx="20" cy="19" r="2"/>
  </g>
  <g id="Black">
    <path class="cls-2" d="M16.93,6.63l-2-5c-.15-.38-.52-.63-.93-.63s-.78.25-.93.63l-2,5c-.12.31-.08.66.1.93s.5.44.83.44h4c.33,0,.64-.16.83-.44s.22-.62.1-.93Z"/>
    <path class="cls-2" d="M7.56,11.17c-.28-.19-.62-.23-.93-.1l-5,2c-.38.15-.63.52-.63.93s.25.78.63.93l5,2c.12.05.25.07.37.07.2,0,.39-.06.56-.17.27-.19.44-.5.44-.83v-4c0-.33-.17-.64-.44-.83Z"/>
    <path class="cls-2" d="M17.93,3.74c2.91,1.12,5.22,3.43,6.34,6.34l2.38.95c-1.12-4.78-4.89-8.54-9.67-9.67l.95,2.38Z"/>
    <path class="cls-2" d="M3.74,10.07c1.12-2.91,3.43-5.22,6.34-6.34l.95-2.38C6.25,2.48,2.48,6.25,1.36,11.03l2.38-.95Z"/>
    <path class="cls-2" d="M10.07,24.26c-2.91-1.12-5.22-3.43-6.34-6.34l-2.38-.95c1.12,4.78,4.89,8.54,9.67,9.67l-.95-2.38Z"/>
    <path class="cls-2" d="M15,25v-5h-3c-.33,0-.64.16-.83.44s-.22.62-.1.93l2,5c.15.38.52.63.93.63s.78-.25.93-.63l.07-.18v-1.19Z"/>
    <path class="cls-2" d="M17,16v-4c0-.55-.45-1-1-1h-4c-.55,0-1,.45-1,1v4c0,.55.45,1,1,1h3.28c.35-.6.98-1,1.72-1ZM13,15v-2h2v2h-2Z"/>
    <path class="cls-2" d="M23.69,16l2.68-1.07c.38-.15.63-.52.63-.93s-.25-.78-.63-.93l-5-2c-.31-.12-.66-.09-.93.1-.27.19-.44.5-.44.83v4h3.69Z"/>
    <path class="cls-2" d="M30,28h-5.28c.17.3.28.63.28,1s-.11.7-.28,1h5.28c.55,0,1-.45,1-1s-.45-1-1-1Z"/>
    <path class="cls-2" d="M21,29c0-.37.11-.7.28-1h-3.28c-.55,0-1,.45-1,1s.45,1,1,1h3.28c-.17-.3-.28-.63-.28-1Z"/>
    <path class="cls-2" d="M30,23h-.28c.17.3.28.63.28,1s-.11.7-.28,1h.28c.55,0,1-.45,1-1s-.45-1-1-1Z"/>
    <path class="cls-2" d="M26,24c0-.37.11-.7.28-1h-8.28c-.55,0-1,.45-1,1s.45,1,1,1h8.28c-.17-.3-.28-.63-.28-1Z"/>
    <path class="cls-2" d="M30,18h-8.28c.17.3.28.63.28,1s-.11.7-.28,1h8.28c.55,0,1-.45,1-1s-.45-1-1-1Z"/>
    <path class="cls-2" d="M18,19c0-.37.11-.7.28-1h-.28c-.55,0-1,.45-1,1s.45,1,1,1h.28c-.17-.3-.28-.63-.28-1Z"/>
  </g>
</svg>